<svg viewBox="0 0 288 80" xmlns="http://www.w3.org/2000/svg"><rect fill="#fff" height="78.9583" rx="11.4792" width="286.958" x=".5208" y=".5208"/><path d="m70.6421 58.4157-18.314-2.6454v-15.4651h18.314zm0-19.5349h-18.314v-14.6511l18.314-2.6454zm25.029 22.9942-23.6046-3.4593v-18.1105h23.6046zm0-22.9942h-23.6046v-17.2965l23.6046-3.4593z" fill="#333"/><path d="m145.742 49h-3.047l-2.906-10.2188c-.125-.4453-.281-1.0859-.469-1.9218-.187-.8438-.3-1.4297-.34-1.7578-.078.5-.207 1.1484-.386 1.9453-.172.7969-.317 1.3906-.434 1.7812l-2.836 10.1719h-3.047l-2.215-8.5781-2.25-8.5547h2.86l2.449 9.9844c.383 1.6015.656 3.0156.82 4.2422.086-.6641.215-1.4063.387-2.2266s.328-1.4844.469-1.9922l2.789-10.0078h2.777l2.86 10.0547c.273.9297.562 2.3203.867 4.1719.117-1.1172.398-2.5391.844-4.2657l2.437-9.9609h2.836zm9.603 0h-2.753v-12.9609h2.753zm-2.918-16.3945c0-.4922.133-.8711.399-1.1367.273-.2657.66-.3985 1.16-.3985.484 0 .859.1328 1.125.3985.274.2656.41.6445.41 1.1367 0 .4687-.136.8398-.41 1.1133-.266.2656-.641.3984-1.125.3984-.5 0-.887-.1328-1.16-.3984-.266-.2735-.399-.6446-.399-1.1133zm18.51 16.3945h-2.766v-7.9688c0-1-.203-1.746-.609-2.2382-.398-.4922-1.035-.7383-1.91-.7383-1.164 0-2.016.3437-2.555 1.0312s-.808 1.8399-.808 3.4571v6.457h-2.754v-12.9609h2.156l.387 1.6992h.14c.391-.6172.946-1.0938 1.664-1.4297.719-.3359 1.516-.5039 2.391-.5039 3.109 0 4.664 1.582 4.664 4.7461zm8.443.2344c-1.617 0-2.879-.586-3.785-1.7578-.906-1.1719-1.359-2.8164-1.359-4.9336 0-2.125.457-3.7774 1.371-4.9571.922-1.1875 2.195-1.7812 3.82-1.7812 1.703 0 3 .6289 3.891 1.8867h.14c-.133-.9297-.199-1.6641-.199-2.2031v-4.7227h2.766v18.2344h-2.157l-.48-1.6992h-.129c-.883 1.289-2.176 1.9336-3.879 1.9336zm.738-2.2266c1.133 0 1.957-.3164 2.473-.9492.516-.6406.781-1.6758.797-3.1055v-.3867c0-1.6328-.266-2.793-.797-3.4805s-1.363-1.0312-2.496-1.0312c-.969 0-1.715.3945-2.238 1.1836-.524.7812-.785 1.8984-.785 3.3515 0 1.4375.253 2.5352.761 3.293.508.75 1.27 1.125 2.285 1.125zm21.58-4.5117c0 2.1172-.543 3.7695-1.629 4.957s-2.597 1.7813-4.535 1.7813c-1.211 0-2.281-.2735-3.211-.8203-.929-.5469-1.644-1.3321-2.144-2.3555s-.75-2.2109-.75-3.5625c0-2.1016.539-3.7422 1.617-4.9219s2.598-1.7695 4.559-1.7695c1.875 0 3.359.6055 4.453 1.8164 1.093 1.2031 1.64 2.8281 1.64 4.875zm-9.433 0c0 2.9922 1.105 4.4883 3.316 4.4883 2.188 0 3.281-1.4961 3.281-4.4883 0-2.9609-1.101-4.4414-3.304-4.4414-1.157 0-1.996.3828-2.52 1.1484-.516.7657-.773 1.8633-.773 3.293zm23.478 6.5039-1.676-6.0469c-.203-.6406-.57-2.1289-1.101-4.4648h-.106c-.453 2.1094-.812 3.6055-1.078 4.4883l-1.723 6.0234h-3.047l-3.632-12.9609h2.812l1.653 6.3867c.375 1.5781.64 2.9297.796 4.0547h.071c.078-.5703.195-1.2227.351-1.9571.164-.7422.305-1.2968.422-1.664l1.969-6.8203h3.023l1.91 6.8203c.118.3828.262.9687.434 1.7578.18.789.285 1.4023.316 1.8398h.094c.117-.9609.391-2.3047.821-4.0312l1.675-6.3867h2.766l-3.656 12.9609zm17.935-3.6914c0 1.2656-.461 2.2383-1.383 2.918-.921.6718-2.242 1.0078-3.96 1.0078-1.727 0-3.114-.2617-4.161-.7852v-2.3789c1.524.7031 2.942 1.0547 4.254 1.0547 1.696 0 2.543-.5117 2.543-1.5352 0-.3281-.093-.6015-.281-.8203-.187-.2187-.496-.4453-.926-.6797-.429-.2343-1.027-.5-1.793-.7968-1.492-.5782-2.504-1.1563-3.035-1.7344-.523-.5781-.785-1.3281-.785-2.25 0-1.1094.445-1.9688 1.336-2.5781.898-.6172 2.117-.9258 3.656-.9258 1.524 0 2.965.3086 4.324.9258l-.89 2.0742c-1.399-.5781-2.574-.8672-3.528-.8672-1.453 0-2.179.4141-2.179 1.2422 0 .4062.187.75.562 1.0312.383.2813 1.211.668 2.485 1.1602 1.07.4141 1.847.793 2.332 1.1367.484.3438.843.7422 1.078 1.1953.234.4453.351.9805.351 1.6055z" fill="#333"/><rect fill="none" height="78.9583" rx="11.4792" stroke="#f1f1f1" stroke-width="1.0417" width="286.958" x=".5208" y=".5208"/></svg>