<svg fill="none" height="91" viewBox="0 0 113 91" width="113" xmlns="http://www.w3.org/2000/svg"><path d="m95.7449 57.3164h-94.21682l-.25464 10.6949 1.52784 1.5278h91.92512l1.0185-1.0185z" fill="#64b346"/><g fill="#000"><path d="m60.1494 79.0677h-23.1468c-.5704 0-1.0338-.4635-1.0338-1.0288v-8.2707c0-.5704.4634-1.0338 1.0338-1.0338h23.1468c.5704 0 1.0338.4634 1.0338 1.0338v8.2707c0 .5653-.4583 1.0288-1.0338 1.0288zm-22.1181-2.0677h21.0842v-6.203h-21.0842z"/><path d="m69.2462 89.401h-41.3434c-.4074 0-.7741-.2394-.9421-.6061-.1681-.3768-.107-.8046.1629-1.1153l9.0907-10.3282c.1986-.2241.4787-.3514.7741-.3514h23.1468c.2954 0 .5805.1273.7741.3514l9.0448 10.2722c.1935.1833.3107.4482.3107.7384 0 .5704-.4635 1.0339-1.0339 1.0339zm-39.0567-2.0677h36.7649l-7.2776-8.2707h-22.2097z"/><path d="m92.9386 70.8027h-88.73704c-2.31722 0-4.20156-1.8843-4.20156-4.2015v-61.8725c0-2.31214 1.88434-4.196473 4.20156-4.196473h88.73704c2.3172 0 4.2066 1.884333 4.2066 4.196473v61.8725c0 2.3172-1.8894 4.2015-4.2066 4.2015zm-88.73704-68.2028c-1.17643 0-2.13388.95236-2.13388 2.1288v61.8725c0 1.1764.95745 2.1338 2.13388 2.1338h88.73704c1.1764 0 2.1389-.9574 2.1389-2.1338v-61.8725c0-1.17644-.9574-2.1288-2.1389-2.1288z"/><path d="m96.1114 58.4015h-95.07756c-.570395 0-1.03384-.4635-1.03384-1.0339s.463445-1.0287 1.03384-1.0287h95.07756c.5704 0 1.0338.4634 1.0338 1.0287s-.4634 1.0339-1.0338 1.0339z"/><path d="m48.6723 61.5029c1.1968 0 2.1644.9728 2.1644 2.1645s-.9676 2.1644-2.1644 2.1644c-1.1969 0-2.1645-.9727-2.1645-2.1644s.9727-2.1645 2.1645-2.1645z"/><path d="m81.7398 86.2031c1.1969 0 2.1645.9778 2.1645 2.1645 0 1.1866-.9727 2.1644-2.1645 2.1644-1.1917 0-2.1695-.9676-2.1695-2.1644s.9727-2.1645 2.1695-2.1645z"/><path d="m15.5004 86.2031c1.1968 0 2.1644.9778 2.1644 2.1645 0 1.1866-.9676 2.1644-2.1644 2.1644s-2.1645-.9676-2.1645-2.1644.9728-2.1645 2.1645-2.1645z"/><path d="m54.7738 61.5029c1.1968 0 2.1645.9677 2.1645 2.1645s-.9677 2.1644-2.1645 2.1644-2.1644-.9727-2.1644-2.1644.9676-2.1645 2.1644-2.1645z"/><path d="m42.5707 61.5029c1.1968 0 2.1644.9677 2.1644 2.1645s-.9676 2.1644-2.1644 2.1644-2.1645-.9727-2.1645-2.1644.9728-2.1645 2.1645-2.1645z"/><path d="m13.9545 21.1987c-.3565 0-.7079-.1833-.9014-.5195-.2801-.4991-.1121-1.1306.387-1.4107l18.0846-10.33327c.494-.2852 1.1255-.11205 1.4107.38705.2852.48891.112 1.12552-.3871 1.41072l-18.0845 10.3333c-.1579.0917-.3361.1324-.5093.1324z"/><path d="m8.39591 17.0631c-.36159 0-.7079-.1884-.90142-.5245-.28011-.494-.11204-1.1255.38705-1.4056l9.04486-5.17434c.494-.28519 1.1255-.11204 1.4107.38704.2801.4991.112 1.1306-.382 1.4107l-9.04481 5.1692c-.16297.0917-.34122.1375-.51438.1375z"/><path d="m75.4399 89.4015h-53.7342c-.5704 0-1.0338-.4635-1.0338-1.0339s.4634-1.0287 1.0338-1.0287h53.7393c.5704 0 1.0338.4634 1.0338 1.0287s-.4634 1.0339-1.0338 1.0339z"/></g><path d="m108.904 41.5322h-18.5773c-1.71 0-3.0962 1.6531-3.0962 3.6923v40.6154c0 2.0392 1.3862 3.6923 3.0962 3.6923h18.5773c1.71 0 3.096-1.6531 3.096-3.6923v-40.6154c0-2.0392-1.386-3.6923-3.096-3.6923z" fill="#64b346"/><path d="m87 48.5322h25v34h-25z" fill="#f5f5f5"/><path d="m98.1895 70.4039c-.0478.0106-.1044.019-.15.0208-.3092.0186-.6066-.1159-.8004-.3486l-2.7026-3.3229c-.3376-.4097-.2713-1.0136.1393-1.3473.4105-.3336 1.0136-.2712 1.3512.1384l1.8597 2.2944 5.1043-8.0169c.285-.4477.878-.5796 1.322-.2938.447.2809.579.8742.294 1.3219l-5.8158 9.1403c-.1323.2132-.353.3668-.5999.4216z" fill="#000"/><path d="m108.904 41.5322h-18.5773c-1.71 0-3.0962 1.6531-3.0962 3.6923v40.6154c0 2.0392 1.3862 3.6923 3.0962 3.6923h18.5773c1.71 0 3.096-1.6531 3.096-3.6923v-40.6154c0-2.0392-1.386-3.6923-3.096-3.6923z" stroke="#000" stroke-linecap="round" stroke-linejoin="round" stroke-width="2"/><path d="m87.2305 48.917h24.7695" stroke="#000" stroke-linecap="round" stroke-linejoin="round" stroke-width="2"/><path d="m87.2305 82.1475h24.7695" stroke="#000" stroke-linecap="round" stroke-linejoin="round" stroke-width="2"/><path d="m59 28.5322h-20.5l-.5.5v13.5l3.5 3.5h14.5l3-3z" fill="#64b346"/><path d="m53.7759 47.1924h-10.3979c-3.4805 0-6.3194-2.8346-6.3194-6.3194v-12.2833c0-.4898.3987-.8885.8885-.8885h21.264c.4854 0 .8842.3987.8842.8885v12.2833c0 3.4848-2.839 6.3194-6.3194 6.3194zm-14.9446-17.7185v11.3991c0 2.5096 2.0371 4.5467 4.5467 4.5467h10.3979c2.5052 0 4.5466-2.0371 4.5466-4.5467v-11.3991h-19.4869z" fill="#010101"/><path d="m55.6675 29.4737h-14.1774c-.4898 0-.8885-.3944-.8885-.8842v-7.0865c0-4.395 3.5801-7.9708 7.975-7.9708 4.395 0 7.9708 3.5758 7.9708 7.9708v7.0865c0 .4898-.3988.8842-.8842.8842zm-13.2889-1.7727h12.4047v-6.2024c0-3.4197-2.7869-6.2023-6.2067-6.2023-3.4197 0-6.198 2.7782-6.198 6.2023z" fill="#010101"/><path d="m53.8912 36.5598h-10.632c-.4854 0-.8842-.3944-.8842-.8885s.3988-.8842.8842-.8842h10.632c.4897 0 .8885.3988.8885.8842s-.3988.8885-.8885.8885z" fill="#f5f5f5"/><path d="m50.3515 41.8743h-3.5454c-.4855 0-.8842-.3944-.8842-.8842s.3987-.8885.8842-.8885h3.5454c.4898 0 .8842.3987.8842.8885s-.3944.8842-.8842.8842z" fill="#f5f5f5"/></svg>