<svg viewBox="0 0 800 500" xmlns="http://www.w3.org/2000/svg" xmlns:xlink="http://www.w3.org/1999/xlink"><radialGradient id="a" cx="353.9369" cy="285.9924" fx="353.9369" fy="285.9924" gradientTransform="matrix(1.1772 0 0 -.7829 -86.6011 418.2314)" gradientUnits="userSpaceOnUse" r="37.4803"><stop offset="0" stop-color="#ffef5d"/><stop offset="1" stop-color="#ea5700"/></radialGradient><radialGradient id="b" cx="380.3248" cy="336.5734" fx="380.3248" fy="336.5734" gradientTransform="matrix(.8987 0 0 -1.0255 -13.3592 508.4791)" r="11.0417" xlink:href="#a"/><radialGradient id="c" cx="475.5537" cy="286.2785" fx="475.5537" fy="286.2785" gradientTransform="matrix(1.1752 0 0 -.7842 -86.086 418.717)" gradientUnits="userSpaceOnUse" r="37.5052"><stop offset="0" stop-color="#952d1a"/><stop offset="1" stop-color="#570a00"/></radialGradient><radialGradient id="d" cx="537.0318" cy="335.8612" fx="537.0318" fy="335.8612" gradientTransform="matrix(.9177 0 0 -1.0042 -18.3608 500.5725)" r="11.1458" xlink:href="#c"/><path d="m-2 0h805v500h-805z" fill="#ce1126"/><path d="m-2 35.7292h805v428.5416h-805z" fill="#003f87"/><circle cx="402" cy="250" fill="#fff" r="196.4583"/><circle cx="402" cy="248.9583" fill="none" r="162.8125" stroke="#552300" stroke-width="3.9"/><path d="m383.25 76.25c14.5833-15.8333 28.0208 2.3958 27.6042 11.0417-.3125 8.5417-15.1042 27.2917-28.6458 12.1875 13.9583 3.5417 18.125-11.9792 25.1042-12.1875-6.9792.2083-9.8958-15.2083-24.1667-11.0417h.1042zm-153.3333 123.9583c-7.7083-20.2083 14.5833-23.9583 22.1875-19.7917 7.6042 4.0625 18.0208 25.625-1.6667 30.8333 9.375-10.8333-2.8125-21.3542.2083-27.7083-3.0208 6.25-18.2292 2.0833-20.7292 16.6667zm330.3125-20c20.2083 7.9167 7.9167 26.875-.2083 29.5833-8.2292 2.8125-31.25-4.1667-21.875-22.0833 1.6667 14.1667 17.7083 12.5 20.5208 18.8542-2.7083-6.4583 10.7292-14.5833 1.5625-26.3542zm-263.6458 212.9167c-21.5625-2.0833-14.8958-23.6458-7.8125-28.5417 7.0833-4.8958 31.25-4.4792 27.0833 15.3125-5.5208-13.125-20.5208-7.0833-25-12.5 4.4792 5.4167-6.25 16.9792 5.7292 25.7292zm218.0208-15.625c.3125 21.5625-21.9792 17.5-27.7083 11.0417-5.625-6.4583-8.0208-30.2083 12.2917-28.4375-12.5 6.875-4.7917 21.0417-9.7917 26.0417 5-5 17.8125 4.1667 25.2083-8.5417zm-268.8542-218.125c-1.9792-21.4583 20.625-19.0625 26.7708-13.125 6.25 6.0417 10.4167 29.5833-10 29.375 11.9792-7.9167 3.125-21.3542 7.7083-26.6667-4.5833 5.2083-18.0208-2.9167-24.4792 10.4167zm23.125 201.0417c-21.3542-3.6458-13.2292-24.6875-5.8333-29.0625 7.2917-4.375 31.3542-2.3958 26.0417 17.0833-4.6875-13.5417-20.1042-8.3333-24.0625-14.1667 3.9583 5.7292-7.5 16.6667 3.8542 26.0417v.1042zm168.8542-283.3334c19.375-9.5833 25.3125 12.1875 21.875 20.1042-3.3333 7.8125-23.9583 20.2083-31.0417 1.3542 11.6667 8.2292 21.1458-4.8958 27.8125-2.5-6.6667-2.3958-3.8542-17.7083-18.6458-18.9583zm41.3542 327.3959c-9.6875 19.2708-27.6042 5.5208-29.6875-2.8125s6.7708-30.5208 23.9583-19.7917c-14.375.5208-13.9583 16.6667-20.625 18.75 6.6667-2.0833 13.8542 11.875 26.3542 3.8542zm94.2708-186.1459c16.25 14.2708-1.7708 27.9167-10.4167 27.8125-8.5417-.1042-27.9167-14.375-13.0208-28.125-3.125 13.9583 12.5 17.7083 12.9167 24.5833-.3125-6.9792 15.1042-10.2083 10.4167-24.2708h.1042zm-273.9583-113.3333c4.8958-20.8333 25.5208-11.6667 29.5833-4.0625 3.9583 7.6042.5208 31.25-18.75 24.7917 13.8542-3.8542 9.6875-19.375 15.625-22.9167-5.9375 3.5417-16.1458-8.3333-26.4583 2.1875zm-64.1667 179.6875c-18.9583-10.4167-4.375-27.6042 4.1667-29.2708 8.3333-1.7708 30.4167 8.0208 18.75 24.6875.2083-14.2708-16.0417-14.5833-17.9167-21.3542 1.875 6.7708-12.5 13.2292-5 26.0417zm274.5834-166.25c21.4583-3.125 20.2083 19.4792 14.5833 25.8333-5.7292 6.4583-29.1667 11.875-30.1042-8.3333 8.5417 11.4583 21.6667 1.9792 27.2917 6.25-5.625-4.2708 1.9792-18.0208-11.7708-23.75zm-122.0834 306.6666c-19.7917 8.75-24.7917-13.2292-21.1458-20.8333 3.75-7.8125 24.8958-19.375 31.25-.1042-11.4583-8.75-21.3542 3.9583-27.9167 1.3542 6.5625 2.6042 3.125 17.9167 17.8125 19.5833zm177.6042-119.8958c8.9583 19.5833-13.125 24.6875-20.9375 21.0417s-19.5833-24.5833-.2083-30.9375c-8.75 11.3542 4.1667 21.1458 1.4583 27.7083 2.6042-6.5625 18.0208-3.125 19.7917-17.8125h-.1041zm-338.6459-63.125c-12.5-17.7083 8.3333-26.7708 16.6667-24.5833 8.3333 2.0833 23.75 20.625 5.9375 30.4167 6.4583-12.8125-7.9167-20.1042-6.5625-26.9792-1.3542 6.875-17.1875 6.3542-16.0417 21.0417v.1042zm116.9792 170c-20.4167 7.3958-23.9583-14.7917-19.6875-22.2917 4.1667-7.5 26.0417-17.6042 31.1458 2.0833-10.7292-9.4792-21.5625 2.5-27.9167-.5208 6.25 3.0208 1.875 18.0208 16.4583 20.7292zm-5.9375-327.0833c12.0833-17.9167 28.125-2.0833 29.1667 6.5625.9375 8.4375-10.7292 29.375-26.4583 16.4583 14.375 1.3542 16.0417-14.5833 22.9167-15.8333-6.875 1.25-12.1875-13.5417-25.625-7.2917v.1042zm208.5417 262.6041c1.3542 21.4583-21.1458 18.4375-27.0833 12.1875-6.0417-6.1458-9.4792-29.7917 10.8333-28.9583-12.1875 7.5-3.75 21.25-8.5417 26.4583 4.7917-5.2083 18.0208 3.4375 24.7917-9.6875zm-5.5208-202.4999c21.25 4.1667 12.5 25 4.8958 29.1667-7.5 4.1667-31.4583 1.3542-25.4167-17.9167 4.1667 13.6458 19.7917 9.0625 23.5417 15-3.75-5.9375 8.0208-16.3542-3.125-26.25h.1041zm-269.1667-15.2084c.2083-21.4583 22.3958-16.875 27.9167-10.3125s7.2917 30.5208-12.9167 28.125c12.7083-6.5625 5.2083-20.8333 10.4167-25.7292-5.2083 4.8958-17.7083-4.6875-25.4167 7.9167zm-26.875 194.0625c-19.375-9.7917-5.3125-27.5 3.0208-29.4792 8.3333-2.0833 30.7292 6.9792 19.7917 23.9583-.4167-14.2708-16.6667-13.9583-18.75-20.625 2.0833 6.6667-12.0833 13.6458-4.1667 26.0417l.1042.1041zm232.2917-229.1666c20.3125-7.6042 23.9583 14.5833 19.7917 22.0833-4.1667 7.5-25.9375 17.8125-31.1458-1.7708 10.8333 9.375 21.5625-2.7083 28.0208.3125-6.4583-3.0208-2.0833-18.0208-16.6667-20.625zm-43.0209 327.9166c-15.8333 14.7917-27.8125-4.2708-26.875-12.8125s16.9792-26.3542 29.375-10.3125c-13.5417-4.4792-18.75 10.8333-25.9375 10.4167 7.0833.4167 8.8542 15.9375 23.4375 12.7083zm138.2292-164.5833c14.7917 15.7292-4.5833 27.6042-13.125 26.5625-8.5417-.9375-26.4583-16.9792-10.2083-29.1667-4.5833 13.5417 10.7292 18.75 10.4167 25.7292.3125-6.9792 16.0417-8.75 12.9167-23.125z" fill="#007f00"/><path d="m382.2083 99.4792c13.9583 3.5417 17.3958-11.7708 24.4792-11.9792-4.1667 4.8958-14.7917 17.3958-24.4792 11.9792zm1.0417-23.2292c14.5833-15.8333 28.0208 2.3958 27.6042 11.0417-11.9792-20.8333-15.625-17.7083-27.7083-11.0417h.1042zm-132.9167 135c9.375-10.8333-2.9167-20.7292 0-27.0833 2.7083 5.8333 9.2708 20.9375 0 27.0833zm-20.5208-11.1458c-7.7083-20.1042 14.5833-23.8542 22.1875-19.7917-24.0625 1.4583-22.9167 6.25-22.1875 19.7917zm308.2291-12.2917c1.6667 14.0625 17.3958 11.7708 20.1042 18.2292-6.1458-2.0833-21.875-7.3958-20.1042-18.3333v.1042zm22.0834-7.6042c20.2083 7.9167 7.9167 26.875-.3125 29.5833 15.3125-18.5417 10.9375-20.8333.3125-29.5833zm-244.2708 199.6875c-5.5208-13.125-20-6.6667-24.375-12.1875 6.4583.3125 22.9167 1.25 24.375 12.1875zm-19.2709 13.2292c-21.5625-2.0833-14.8958-23.6458-7.8125-28.5417-9.5833 21.9792-4.7917 23.0208 7.8125 28.5417zm202.6042-33.0208c-12.5 6.875-4.375 20.4167-9.375 25.3125-.4167-6.25-1.3542-22.7083 9.375-25.3125zm15.4166 17.3958c.3125 21.5625-21.9792 17.5-27.7083 11.0417 23.2292 6.875 23.6458 2.0833 27.7083-11.0417zm-252.1875-202.0833c11.9792-7.8125 2.8125-20.625 7.2917-26.0417 1.0417 6.3542 3.125 22.7083-7.2917 26.0417zm-16.7708-16.0417c-1.9792-21.4583 20.625-19.0625 26.7708-13.125-23.6458-5.1042-23.75-.2083-26.7708 13.125zm43.2292 189.0625c-4.5833-13.5417-19.4792-7.9167-23.4375-13.75 6.3542.7292 22.8125 2.8125 23.4375 13.75zm-20.1042 11.9792c-21.3542-3.6458-13.2292-24.6875-5.8333-29.0625-11.0417 21.3542-6.25 22.7083 5.8333 29.0625zm159.6875-261.875c11.7708 8.2292 20.5208-4.8958 27.1875-2.6042-5.625 3.125-20.1042 11.0417-27.0833 2.6042zm9.2708-21.4583c19.375-9.5833 25.3125 12.1875 21.875 20.1042-3.6458-23.75-8.3333-21.9792-21.875-20.1042zm35.625 304.7916c-14.375.5208-13.3333 16.25-20.1042 18.3333 2.6042-5.8333 9.375-20.8333 20.1042-18.2292v-.1042zm5.7292 22.6042c-9.6875 19.2708-27.6042 5.5208-29.6875-2.8125 17.3958 16.6667 20 12.5 29.6875 2.8125zm70.8333-186.4583c-3.2292 13.9583 12.3958 16.9792 12.7083 23.9583-5.1042-3.9583-17.9167-14.2708-12.7083-23.9583zm23.4375.3125c16.25 14.2708-1.7708 27.9167-10.4167 27.8125 20.7292-12.5 17.3958-16.0417 10.4167-27.8125zm-263.125-92.7083c13.8542-3.75 9.1667-18.75 15.2083-22.3958-1.0417 6.25-4.1667 22.3958-15.2083 22.5zm-10.8333-20.625c4.8958-20.8333 25.5208-11.6667 29.5833-4.0625-20.8333-12.1875-22.5-7.5-29.5833 4.1667zm-41.1458 175c.1042-14.1667-15.8333-13.8542-17.7083-20.625 5.8333 2.8125 20.7292 10.1042 17.7083 20.7292zm-22.9167 4.6875c-19.0625-10.4167-4.4792-27.6042 4.0625-29.2708-17.5 16.5625-13.5417 19.375-4.1667 29.2708zm258.9583-148.7501c8.5417 11.4583 21.0417 1.6667 26.6667 5.9375-6.3542 1.25-22.6042 4.2708-26.6667-5.9375zm15.5209-17.5c21.4583-3.125 20.2083 19.4792 14.5833 25.8333 3.8542-23.6458-1.0417-23.4375-14.5833-25.8333zm-111.9792 285.7292c-11.4583-8.75-20.7292 4.0625-27.1875 1.4583 5.7292-2.9167 20.5208-10.2083 27.0833-1.4583zm-10.1042 20.9375c-19.7917 8.75-24.7917-13.2292-21.1458-20.8333 2.8125 23.75 7.5 22.2917 21.1458 20.8333zm156.4583-129.8958c-8.75 11.3542 4.1667 20.5208 1.5625 26.9792-2.9167-5.625-10.4167-20.3125-1.5625-27.0833v.1042zm21.1459 9.8958c8.9583 19.5833-13.125 24.6875-20.9375 21.0417 23.9583-2.9167 22.5-7.5 20.9375-21.0417zm-315.9375-57.2917c6.4583-12.8125-8.0208-19.375-6.6667-26.25 3.9583 5 14.0625 18.0208 6.6667 26.25zm-22.7084-5.9375c-12.5-17.6042 8.3333-26.5625 16.6667-24.4792-23.0208 7.2917-20.625 11.4583-16.6667 24.5833v-.1042zm128.4375 150c-10.7292-9.4792-20.8333 2.6042-27.2917-.4167 5.9375-2.5 21.25-8.8542 27.2917.3125zm-11.4583 20.2083c-20.4167 7.3958-23.9583-14.7917-19.6875-22.2917 1.1458 23.9583 5.9375 22.8125 19.6875 22.2917zm-3.125-304.0625c14.2708 1.3542 15.3125-14.375 22.1875-15.625-3.2292 5.5208-11.875 19.5833-22.2917 15.625zm-2.8125-23.125c12.0833-17.8125 28.125-1.875 29.1667 6.5625-15.1042-18.75-18.3333-14.8958-29.1667-6.5625zm192.3958 245.9376c-12.1875 7.5-3.4375 20.625-8.2292 25.8333-.7292-6.3542-2.3958-22.7083 8.3333-25.8333h-.1042zm16.25 16.7708c1.3542 21.4583-21.1458 18.4375-27.0833 12.1875 23.3333 5.9375 23.6458 1.0417 27.0833-12.1875zm-26.0416-191.25c4.1667 13.6458 19.2708 8.6458 23.0208 14.5833-6.25-1.0417-22.7083-3.6458-22.9167-14.5833h-.1042zm20.5208-11.25c21.25 4.1667 12.5 25 4.8958 29.1667 11.7708-20.9375 7.0833-22.5-4.8958-29.1667zm-254.1666 2.7083c12.7083-6.6667 4.8958-20.4167 10-25.2083.3125 6.3542.8333 22.8125-10 25.2083zm-15-17.9166c.2083-21.4583 22.3958-16.875 27.9167-10.3125-22.9167-7.3958-23.5417-2.5-27.9167 10.4167zm-4.1667 188.5416c-.3125-14.2708-16.25-13.3333-18.3333-20 5.9375 2.5 21.0417 9.375 18.3333 20zm-22.8125 5.5209c-19.2708-9.7917-5.2083-27.5 3.125-29.4792-16.875 17.0833-12.8125 19.7917-3.125 29.4792zm221.0416-208.75c10.8333 9.375 20.8333-2.9167 27.2917 0-5.9375 2.7083-21.1458 9.0625-27.2917 0zm11.25-20.4167c20.3125-7.6042 23.9583 14.5833 19.7917 22.1875-1.25-23.9583-6.0417-22.8125-19.7917-22.1875zm-40.5208 304.7917c-13.5417-4.4792-18.125 10.625-25.2083 10.4167 4.4792-4.6875 16.0417-16.4583 25.2083-10.4167zm-2.5 23.125c-15.8333 14.7917-27.8125-4.2708-26.875-12.8125 10.4167 21.5625 14.375 18.6458 26.875 12.8125zm114.8958-167.1875c-4.5833 13.5417 10.625 18.0208 10.3125 25-4.6875-4.375-16.4583-15.9375-10.3125-25zm23.3334 2.6042c14.7917 15.7292-4.5833 27.6042-13.125 26.5625 21.875-10.3125 18.8542-14.1667 13.125-26.5625z" fill="#005800"/><path d="m432.2083 125.3125s.625-1.3542 1.7708-.625c1.0417.8333 1.3542 4.375 1.3542 4.375l-1.6667.8333s.9375-1.3542-1.3542-4.5833h-.1042zm-9.1666 31.9792s.8333-1.0417-.3125-3.5417l1.5625-.5208s.625 1.875-.2083 4.0625zm28.125-5.625-3.8542 2.3958 1.9792.8333 4.6875-2.7083zm-51.7709 15.2083c-1.0417.8333-1.0417 2.1875-1.7708 3.125-.4167.7292-2.0833 1.875-2.0833 3.125-.2083 1.1458-.3125 1.9792.2083 3.6458.625 1.5625 3.125 8.8542 2.0833 14.2708-1.0417 5.5208-.625 7.8125-.3125 8.6458.4167.8333 1.6667 3.125 2.3958 3.125 1.6667-.2083.9375-.7292 1.5625-1.7708 1.4583-2.6042 0-23.125-.7292-28.75-.5208-4.375-2.6042-8.3333-2.8125-8.75l-.8333-2.7083c-1.5625-3.6458-3.4375-6.7708-3.4375-14.4792 0 0-4.8958 1.1458-9.1667-8.5417-2.2917-4.8958-5.5208-4.375-9.375-5.9375l1.6667-1.1458s3.3333 1.6667 4.8958 1.6667c1.6667 0 1.0417-3.3333 1.0417-3.3333l1.7708-1.5625v7.0833c0 3.2292 4.4792 7.7083 7.0833 9.0625 1.6667.8333 3.75-2.5 3.2292-5.8333-.5208-3.125 0-7.6042 0-7.6042l2.2917 1.3542s-.8333 1.3542-.625 2.1875c.3125.8333 1.3542-.7292 2.1875-1.5625 0 0 .2083.2083 1.0417.2083l-2.3958 4.1667c-.8333 1.25-.8333 6.4583-.8333 8.3333 0 2.0833.7292 6.4583.7292 7.9167 0 1.0417 1.875 5.2083 3.4375 7.7083l1.6667 3.6458c1.25 1.9792 1.3542 3.3333 2.0833 4.8958.4167.8333 1.0417 3.125 1.6667 7.2917l.7292 7.2917c.2083 2.5 2.2917.625 4.6875-1.0417 2.5-1.875 2.5-6.25 2.5-6.25s1.875-1.6667 1.5625-.7292c-.2083 1.0417 1.0417 2.0833 1.0417 2.0833-1.4583 3.4375-.625 3.0208.9375 2.9167 1.5625-.2083 6.7708-4.1667 6.7708-4.1667.7292-.2083 3.9583-.2083 3.4375 0-.625.3125-1.4583 1.7708-1.4583 1.7708l3.4375-.4167c-1.1458.9375-5.7292 3.5417-6.7708 4.1667-2.9092 1.5797-5.8994 3.0053-8.9583 4.2708-2.3958 1.0417-6.9792 3.3333-7.1875 5.625 0 2.3958.3125 8.6458 0 10.7292l-1.0417 11.0417h-10.8333s2.0833-7.9167 0-10.1042c-2.1875-2.1875-7.2917-8.75-10.4167-10.9375-3.3333-2.0833 2.0833-.5208 2.0833-.5208v-2.1875l5 5.9375s8.6458-7.6042 0-18.0208c-2.7083-3.2292-5.5208-8.2292-7.6042-8.75-2.2917-.625-3.4375-1.0417-7.1875 0-3.8542 1.1458-13.125 1.1458-16.9792-5l3.2292-.5208 2.8125-1.0417s-1.1458 3.8542 6.5625 3.8542 8.75 0 8.125-7.0833l2.2917-1.1458 1.6667 1.5625s-1.1458 3.9583-.5208 5.5208c.5208 1.6667 3.125 2.8125 5.3125 4.375 1.0417.7292 1.6667.8333 2.2917.8333.9375-.1042 1.0417-.1042 2.2917-1.3542 1.875-2.0833 1.4583-1.875 3.3333-3.5417l1.0417-1.6667 1.1457 3.0208z" fill="#730000" stroke="#000" stroke-width=".5"/><path d="m400.9583 161.4583c.5208-.4167 1.25-1.9792 2.0833-3.2292 1.1458-2.0833 2.6042-3.3333 4.1667-5.8333 1.5625-2.2917 2.0833-5.8333 1.5625-8.2292l1.4583.8333v3.8542l2.8125-2.0833.8333.4167s-6.1458 6.25-11.7708 16.5625l-1.0417-2.2917h-.1042zm-53.4375-21.1458c.8333 1.4583 1.6667 4.1667 4.0625 6.25l1.6667-.4167s-3.75-4.375-3.75-6.25zm9.5834-2.5s.5208 5.2083-.8333 7.1875l1.6667-.8333s1.0417-3.5417.7292-5.5208l-1.5625-.7292v-.1042zm53.5417-16.3542s-.3125 7.2917 1.1458 11.7708l1.9792-.5208s-.3125-1.3542 1.25-1.9792c1.6667-.5208 5.5208-2.0833 7.5-3.75l-.625-1.6667s-2.9167 2.3958-4.375 3.0208c-1.3542.5208-2.0833 1.0417-3.2292.7292s-2.5-2.0833-1.6667-6.25l-1.9792-1.3542zm21.5625 34.1667s-.4167 5.2083-.2083 7.5l1.7708.4167s-.4167-6.25.7292-6.7708l-2.2917-1.0417m7.8125 3.8541s-1.9792 3.3333-4.1667 3.6458l3.5417-.7292s1.0417-.5208 2.5-2.0833z" fill="#730000" stroke="#000" stroke-width=".5"/><path d="m408.875 144.1667 1.3542.8333 1.3542.2083 3.3333 2.7083c1.25 1.0417 1.25-.2083 1.25-.2083l.8333 3.2292h1.0417l-.2083 3.3333 1.875-1.6667 2.2917 1.9792s1.5625-1.4583 2.3958-1.4583 1.1458-.8333 1.1458-.8333h.1042c-5.4167-2.5-7.7083-5.2083-6.1458-7.9167 2.7083-4.5833 7.0833-1.6667 8.4375-1.0417l19.7917 10.625s1.3542-.8333.4167-1.6667c-1.0417-.8333-1.4583-2.8125-1.0417-3.6458.2083-.8333 2.5 2.5 3.5417 2.8125l3.6458.7292v-1.0417s3.125 2.2917 3.125 3.4375c0 0 2.3958-1.25 1.5625-1.9792-.7292-.7292 3.6458 1.7708 3.8542 3.125l1.0417-1.0417c-.2083 0 .2083-3.3333 1.3542-4.7917.4858-.8494 1.2102-1.5375 2.0833-1.9792 0 0 1.0417-1.7708 2.0833-1.7708 0 0-1.0417-.625-1.4583-1.4583-.5208-.8333-1.6667-1.25-1.6667-1.25s1.4583-1.0417 1.875-1.5625c.4167-.625.8333-.7292.8333-.7292s-2.2917-1.9792-3.9583-2.2917c0 0-.1042-2.6042-2.0833-2.8125h.8333s-1.4583-2.9167-2.9167-2.9167c0 0 .9375-1.0417 1.6667-1.1458 0 0-1.6667-2.2917-4.0625-1.4583l1.5625-.625s-1.0417-1.1458-4.5833-.625c0 0 .3125-1.3542-1.25-2.5 0 0-1.25 0-1.25 1.0417 0 0-1.25-1.0417-2.8125-1.0417-1.4583 0 .5208 1.6667.5208 1.6667s-2.0833-1.3542-3.2292-1.0417c0 0 .5208-2.2917-.8333-3.4375 0 0-1.4583.7292-1.875 1.7708l-.4167-1.0417s-2.0833 2.5-2.5 1.7708c-.3125-.4167-.625-2.0833-.625-2.0833l-1.1458 1.7708.2083-2.5s-1.4583.8333-2.6042 3.4375c0 0-1.3542 1.3542-1.3542 2.5 0 0-1.1458-1.25-2.0833 0-1.0417 1.4583 0 1.1458 0 1.1458s-.5208.5208-1.5625.7292l.2083.8333s-1.25-.7292-2.2917-.4167l.5208 1.25s-2.7083.2083-2.8125-2.0833c0 0-2.1875-1.0417-2.5.2083l-1.6667 1.0417s-.5208-1.0417-1.3542-1.25c-1.0417-.3125-.2083 1.3542-.2083 1.3542s-.3125-1.25-1.5625-1.875c-1.25-.5208-.2083 1.0417-.2083 1.0417s-1.5625-1.25-.8333-2.2917c0 0-1.4583 1.4583-.7292 2.8125l-1.0417.7292s-.5208-.5208-.4167-1.0417c0-.3125-1.7708 1.3542-1.7708 1.3542s-1.0417-2.7083 0-2.7083c.1042 0-1.875 0-2.1875 2.2917 0 0-1.3542 0-2.6042.4167s1.0417 1.3542 1.0417 1.3542-2.0833-.4167-3.125.2083l.7292.9375s-.7292-.7292-2.5-.1042c-1.7708.5208.4167.8333.4167.8333s-1.7708-.4167-2.7083 0 .3125 1.0417.3125 1.0417-3.3333-1.0417-3.8542-.625c-.5208.3125 1.0417 1.875 1.0417 1.875s-2.0833.5208-2.3958 2.0833l1.875.7292s-.8333.4167-1.25 1.1458c-.4167.8333 1.25.4167 1.25.4167s-2.2917 1.6667-2.2917 2.9167c0 0 1.6667.5208 2.8125-.7292 1.25-1.25.4167-.8333.4167-.8333l.1042.8333s2.3958-1.0417 2.3958-1.6667c0-.5208-.4167.8333-.4167.8333l2.2917-1.25 1.5626 1.0417z" fill="#289400" stroke="#030" stroke-width=".5"/><path d="m406.8958 112.5-.5208-2.2917 5.2083.625.9375-2.0833s2.5 1.0417 3.2292 1.875c0 0 4.7917-1.25 6.25-.7292l-.625 2.1875s4.375.3125 5.8333.8333c1.25.5208-.625 1.6667-.625 1.6667s5 .625 7.0833 1.875c2.2917 1.3542 2.2917 2.5 1.1458 2.8125l2.7083 4.375s-4.375.5208-5.2083 1.5625c-.7292 1.1458-1.5625-1.0417-1.5625-1.0417l-.8333 3.0208s-2.7083-1.4583-3.8542-2.5c0 0-1.3542 1.6667-.5208 2.5l-5-3.2292s-2.0833-.3125-2.0833 1.5625l-3.125-3.5417-2.7083.8333s-.8333-1.0417-1.7708-1.4583c-1.1458-.2083-.3125 1.4583-.3125 1.4583l-1.6667-1.9792-1.6667-1.875s-1.3542 1.875-2.5 1.875c-1.0417 0-1.0417-1.25-.8333-2.1875.3125-.8333-3.2292-1.0417-3.5417 0 0 0-1.0417-4.1667 2.7083-5.2083l3.8542-1.0417v.1042zm-19.7916 13.8542-1.6667 1.6667-1.0417-.5208-1.9792 2.1875-.4167-1.1458-1.0417 1.7708-1.7708-.625-.8333 1.3542-1.5625-.3125s-1.25 1.25-2.0833 1.5625c-.8333.2083 0-1.875 0-1.875s-1.25 2.0833-2.0833 2.0833c-.9375 0-.625-1.0417-.625-1.0417s-.5208 1.4583-1.4583 1.6667c-.9375 0-.5208-1.0417-.5208-1.0417l-1.6667 1.25v-1.0417l-.7292-.3125s.4167-1.875 1.1458-2.2917-.7292-1.5625-.7292-1.5625l.7292-.8333s-2.0833-.5208-2.0833-.1042c0 0 1.0417-2.7083 2.5-3.2292l.1042-3.125s1.4583-1.1458 2.7083-1.25c1.4583-.2083-.4167-2.3958-.4167-2.3958l3.3333-1.875.4167-2.3958 4.8958.4167 1.0417-2.0833 3.9583 1.0417 3.4375-1.7708 2.3958 2.8125 3.6458.3125v3.2292s4.2708 1.3542 4.7917 1.7708c0 0-.8333 2.6042-.8333 3.125 0 0 3.125-.8333 3.9583-.625l.4167 3.5417s5.2083 1.6667 5.5208 2.6042c0 0-1.0417.7292-1.7708 1.6667 0 0 .625 3.125.625 4.1667l-.4167.5208s-1.4583-1.3542-2.7083-1.5625l-1.0417 2.1875-1.7708-1.1458h-1.1458s-.9375-1.0417-1.6667-1.0417v-1.0417l-1.4583.9375s-2.2917-1.1458-2.2917-1.875l.1042-1.5625-2.2917 1.5625s-.5208-1.1458-.4167-1.6667c0-.5208-.9375 1.1458-.9375 1.1458s-1.25-2.0833-1.0417-2.5l-.4167 1.7708s-2.3958-.8333-2.7083-2.5h-.1041z" fill="#289400" stroke="#030" stroke-width=".5"/><path d="m354.6042 136.3542s4.2708 2.0833 4.2708 3.125c0 0 1.1458-2.1875.5208-3.125l1.6667 1.1458s.5208-1.9792-.1042-2.6042c-.5208-.5208 3.6458-2.1875 4.5833.5208 0 0 2.5-2.6042-2.3958-4.8958 0 0-.4167-1.6667 2.6042-1.25 0 0-.2083-1.0417-.9375-1.3542h2.8125s-1.6667-1.4583-4.1667-1.875-1.0417-.7292-1.0417-1.25c-.2083-.5208 0-2.2917 0-2.2917s-1.4583-.5208-2.6042 0l.4167-.4167s-2.6042-.7292-3.6458-.1042c0 0-1.5625-.625-1.3542-2.1875 0 0-1.5625-.1042-2.1875 1.4583 0 0-1.4583 1.6667-3.4375 1.6667-.3125 0-1.7708-.8333-1.7708-.8333l-1.25 2.8125h-1.875l.5208 1.0417s-2.9167-.8333-3.8542 0c0 0 1.1458 1.7708.8333 2.9167 0 0-2.2917.4167-2.8125.8333-.625.4167.8333.7292.8333.7292s-2.7083.8333-3.3333 1.6667l1.0417.7292-1.25 1.6667 1.0417.2083-2.6042.8333c-.9375.3125 1.5625.5208 1.5625.5208l-1.1458 1.0417 1.875.3125s-1.4583 4.1667-1.5625 6.0417c0 0 2.2917-2.8125 2.9167-3.125l-1.875 3.125s3.5417-1.0417 3.8542-1.6667l.5208-1.0417.1042 1.6667s1.3542-1.7708 1.5625-2.5c.1042-.7292 2.0833.7292 2.0833.7292v-1.0417l2.5.7292c.7292 0 .8333-.3125.8333-.3125l1.6667-.2083-.3125 1.4583s1.25-.8333 1.5625-1.6667c.2083-.8333.8333 0 .8333 0l.8333-3.2292h1.6667zm-13.9584 14.375 1.6667 3.4375c-1.3542 0-3.2292 1.5625-3.2292 1.5625.3125 5.625-1.0417 5.3125-1.0417 5.3125.3125 1.0417-.3125 2.9167-.3125 2.9167l8.0208-4.7917.1042-.5208 9.5833-4.4792.3125.5208 2.7083-1.5625 1.9792 5.1042-1.9792 1.0417c.1042 1.7708 2.1875 4.7917 2.1875 4.7917l2.5-.625 2.8125-1.0417v1.0417c0-.3125 3.0208-1.3542 3.0208-1.3542l1.3542 1.3542c1.0417-.1042 2.8125-2.6042 2.8125-2.6042l2.0833.8333s.7292-1.25.7292-2.0833 2.7083-.8333 2.7083-.8333l1.7708 1.25 2.3958-1.875s.7292 1.3542 1.6667 1.5625c1.0417.1042 3.5417 2.0833 3.5417 1.6667s1.0417-2.6042 1.0417-2.6042l4.2708 1.6667c-.5208-1.875-2.0833-4.1667-2.0833-4.1667s2.0833-1.6667 1.7708-2.0833c-.4167-.4167-1.6667 0-1.6667 0l1.25-2.5h-1.6667l.5208-.625-2.6042-1.0417 1.3542-2.9167c-.625-.7292-7.6042-2.0833-7.6042-2.0833l1.6667-1.5625s-.8333-1.25-1.6667-1.25-5.1042.1042-5.2083-.3125l-1.875-1.875-2.7083 1.9792-1.3542-.4167-2.2917.8333s0 1.3542-.3125.4167c-.3125-.8333-2.3958-2.9167-2.3958-2.9167-.4167.7292-3.125 3.9583-3.125 3.9583s-.5208 1.7708-1.3542.5208c-1.0417-1.25-3.125-2.5-3.5417-1.5625-.2083 1.1458-2.1875 2.0833-2.6042 1.875-.4167-.3125-2.6042-.1042-2.8125.5208-.1042.7292-2.6042 2.5-2.6042 2.5-1.4583-.7292-3.9583-.3125-3.9583-.3125s-.7292 1.1458-.8333 2.0833l-4.8958 1.25h-.1043zm46.0417 41.25v-2.0833l2.3958 1.5625 1.4583-1.5625 1.875 1.7708 1.0417-1.7708v2.9167l2.8125-2.3958 1.5625.625v-2.2917s1.9792-3.2292 1.1458-3.8542l1.6667-.5208s-2.8125-2.7083-3.5417-3.2292c-.8333-.625-1.9792-.625-1.9792-.625s-2.0833-2.0833-3.5417-2.8125c-1.3542-.5208-2.0833.625-2.0833.625s-.8333-1.5625-2.2917-1.875c-1.3542-.3125-1.3542 1.0417-1.3542 1.0417s-1.0417-1.0417-2.2917-1.4583c-1.3542-.625-.4167 1.25-.4167 1.25l-4.6875-1.4583.625 1.4583-4.375-1.1458.5208 1.5625-3.125-.5208-.2083 1.3542-4.375.8333.8333 1.4583-2.7083-1.1458v1.9792l-3.125 1.0417 1.1458 1.0417-4.8958 2.5c-.7292.5208 1.6667 1.6667 1.6667 1.6667l-4.375-.625 1.6667 1.4583-3.8542 3.5417 2.7083 1.9792-1.6667 2.3958 4.1667.8333 1.5625 2.7083 3.3333-.625v3.125l4.8958-3.8542s3.5417 3.125 3.8542 2.1875c.2083-.8333.2083-3.5417.2083-3.5417h1.7708v-2.7083l1.25 1.0417 2.2917-3.2292 2.9167 4.0625 2.2917-5.2083 3.2291.5209zm19.8959-12.2917-.4167-4.6875-1.4583 1.4583.625-4.375-2.2917-.4167.8333-4.2708-1.6667-.8333.4167-2.0833 1.6667-1.1458 2.9167-2.9167 6.875.1042.7292-2.1875 4.8958.8333c.8333.8333 3.4375-1.875 3.4375-1.875h1.0417l1.0417 2.0833s3.5417-.4167 5.2083.625l-1.9792 2.7083 3.6458.3125 2.3958.5208 2.5-.8333 3.3333-.2083.7292 1.3542h3.125l-1.0417 1.1458 3.9583 1.875-.8333.8333s2.2917.8333 3.8542.8333h.8333s.8333 1.875-.3125 2.7083c0 0 1.1458 2.7083 3.5417 3.2292q2.5.5208 2.8125 1.0417c.3125.625 0 3.3333-2.8125 3.3333v2.8125s-2.0833 1.875-2.3958 2.7083l-1.6667-1.0417s-1.3542 1.5625-1.3542 2.6042c0 0-3.6458-4.6875-4.8958-4.8958-1.4583-.2083-1.0417 2.7083-1.0417 2.7083l-3.9583-3.2292-.5208 2.1875-3.2292-2.7083-1.9792 1.3542-3.4375-3.6458-3.3333.4167 1.25-1.6667h-4.0625l-.7292-3.5417-.625 2.9167-2.5-1.6667-3.125 3.4375s-.4167-.4167-.9375-2.0833c-.5208-1.5625-1.875 2.0833-1.875 2.0833l-1.1458-2.6042-1.3542 2.5s-1.0417-1.875-2.1875-2.5c-1.0417-.5208-2.0833 3.125-2.5 4.6875zm.625 10.7292.2083-1.6667 5.8333-2.2917 4.8958-1.7708 2.3958-1.1458 1.1458 1.9792 1.4583-2.8125 2.1875 2.9167 1.25-1.5625 1.875 1.4583h1.6667l.3125 2.0833s4.0625.3125 4.375-.5208.8333 2.8125.8333 2.8125l3.8542.5208.8333 4.375s1.875 4.0625 1.25 5.625c-.5208 1.7708-2.0833-2.0833-2.0833-2.0833s-.3125 3.0208-.625 3.8542c-.2083.8333-5.2083-.8333-5.2083-.8333l-2.0833 4.0625s-2.2917-3.2292-3.3333-3.2292-1.0417 3.2292-1.0417 3.2292l-4.6875-5.5208c-1.3542-1.5625-1.6667 1.6667-1.6667 1.6667s-2.0833-3.5417-2.0833-4.5833-1.9792-2.2917-1.9792-2.2917-3.3333 3.8542-5.8333 4.8958c0 0 .3125-2.3958-.5208-3.125-.7292-.9375-3.125 1.5625-3.125 1.5625s-1.7708-3.75 0-7.7083l-.1042.1042z" fill="#289400" stroke="#030" stroke-width=".5"/><path d="m434.0833 129.6875.5208 2.0833s1.875-.4167 3.125-.3125l-.7292 2.2917s2.3958-.4167 3.5417.3125l-.5208 1.25 2.8125 1.25-2.6042 2.0833s4.1667 1.5625 5.1042 2.8125c0 0-2.8125 1.875-3.125 1.7708-.5208-.2083-.2083.8333.5208 1.7708l-2.2917-.1042s.9375 2.0833.8333 2.9167c-.2083.8333-3.9583.625-3.9583.625m14.6876-5.5208s.7292-4.0625-.4167-5.1042c0 0 2.6042 2.2917 4.375 2.3958 1.875 0 0-3.3333 0-3.3333s2.3958 1.25 3.6458 1.5625c1.25.2083-.9375-2.5-.9375-2.5s.7292-1.3542 2.8125-.1042m-47.2916-16.1457s0-1.0417-.3125-1.4583c-2.5-3.3333 2.5 2.5 3.5417 2.7083m4.6875 0s1.6667 1.25 2.3958 1.25c.8333 0-.5208-3.2292-.9375-3.6458-.3125-.4167 3.0208 1.3542 4.1667 1.4583 1.25.3125 1.4583-2.0833 1.4583-2.0833s3.75.7292 4.5833 1.25m-26.0416-.7292-.5208-3.125m-25.2084 13.2292c-.2083-.3125 1.0417-2.0833.5208-3.0208 0 0 .7292.625 1.4583.7292.625.1042.4167-2.2917.4167-2.2917l.7292.3125s2.0833-1.0417 1.7708-1.875c-.4167-.8333 1.4583 1.25 1.4583 1.25s1.1458-1.25 1.1458-1.7708 1.4583 1.25 1.4583 1.25 1.5625-.3125 1.5625-1.25 1.875.3125 1.875.3125.8333-1.0417.7292-1.875m-20.5208 10.2082s.9375-2.0833-.1042-3.5417m-24.5833 10.2084c0-1.0417.5208-3.75 0-4.1667-.4167-.4167 1.0417.4167 2.2917.7292m9.6875-.4167c-1.25-1.1458-1.9792-1.7708-3.8542-1.7708m-16.875 8.6458c.3125-.7292.8333-2.5.5208-3.4375m26.0417 53.8542 1.3542-2.7083 1.6667 3.8542 1.0417-2.3958.4167.7292 2.5-2.6042 2.6042 3.9583m42.3957-17.1876 1.7708-3.4375 2.3958 1.25 1.0417-3.4375 2.5 1.5625 1.3542-3.125 2.8125.7292.2083-2.2917s1.875 1.0417 2.3958 1.9792c.625.7292 0-2.8125 0-2.8125l2.2917 1.0417s1.5625-1.6667-.625-2.5" fill="none" stroke="#004b00" stroke-width=".5"/><path d="m426.5833 169.8958 2.3958 3.5417 2.0833-2.2917 1.7708 3.9583 2.3958-1.4583 3.3333 1.9792 1.5625-1.25 3.6458 2.6042 1.4583-3.125 3.3333 1.0417 2.0833-3.6458m-87.9163-9.5834s1.4583-2.3958 1.0417-3.5417c-.7292-1.0417 2.9167 1.875 2.9167 1.875s.7292-2.3958.3125-3.5417c-.625-1.0417 4.0625 3.3333 4.0625 3.3333s.7292-3.8542 0-4.5833c-.8333-.8333 4.4792 1.0417 4.4792 1.0417s2.0833-.625 1.25-1.6667c-.8333-1.1458 3.5417 1.5625 3.5417 1.5625s1.0417-2.7083 0-3.75 3.3333 1.3542 3.3333 1.3542l-1.6667-2.9167 3.5417.2083-.3125-3.3333m31.5623 46.9792 2.2917-1.0417 2.0833 2.0833 2.2917-3.6458 2.7083 2.6042.4167-2.6042 2.9167 1.25.625-1.6667 3.2292 1.7708.3125-2.5 1.6667.5208.3125-1.5625" fill="none" stroke="#004b00" stroke-width=".5"/><path d="m363.5625 310.5208c-2.542-4.2877-4.6364-8.8255-6.25-13.5417l44.1667-38.75 44.0625 38.6458c-1.6204 4.848-3.7871 9.496-6.4583 13.8542l-.3125.5208-3.3333-1.25s-1.4583 1.3542-2.6042 1.4583c-1.4583.2083-2.8125-1.3542-2.8125-1.3542s-1.875 1.6667-3.8542 1.3542c-1.9792-.2083-2.7083-1.4583-2.7083-1.4583s-2.0833 1.6667-3.5417 1.3542c-1.25-.3125-2.1875-1.25-2.1875-1.25s-1.25 1.5625-2.9167 1.25-3.125-1.25-3.125-1.25-2.6042 1.0417-4.1667 1.3542c-1.6667.3125-3.125-1.4583-3.125-1.4583s-2.0833 1.4583-2.9167 1.4583-3.8542-1.4583-3.8542-1.4583-3.125 1.0417-4.2708 1.0417c-1.0417 0-4.1667-1.3542-4.1667-1.3542s-3.0208.8333-4.2708.8333c-1.4583 0-3.5417-.8333-3.5417-.8333s-2.3958 1.1458-3.75.8333c-1.4583-.3125-2.5-.8333-2.5-.8333s-2.7083 1.1458-4.375.8333-3.5417-1.4583-3.5417-1.4583-.3125.8333-3.5417 1.4583" fill="#9dd7ff"/><path d="m401.4792 213.6458v44.6875l-44.0625 38.9583c-3.0619-9.0956-4.6103-18.6321-4.5833-28.2292v-55.5208h48.6458" fill="#fff" stroke="#000" stroke-width=".7"/><path d="m401.4792 213.6458v44.6875l43.9583 38.9583c3.0265-9.1015 4.5397-18.6378 4.4792-28.2292v-55.5208h-48.4375" fill="#ffd83c" stroke="#000" stroke-width=".7"/><path d="m373.0417 301.25c3.3333 1.7708 2.0833 1.25 9.0625 3.6458 6.9699 2.1887 14.2616 3.175 21.5625 2.9167 8.3333 0 12.9167-.7292 15.625-1.4583 2.6042-.7292 3.2292-1.875 3.2292-1.875l-6.7708 6.9792s-27.3958 1.4583-32.2917-1.7708c-2.0833-1.0417-6.25-4.375-10.4167-8.3333v-.1042z" fill="#730000" stroke="#000" stroke-width=".5"/><path d="m413.25 288.3333s8.75 5 0 14.5833m-39.375-1.0416 12.5-12.0833-1.3542 16.0417m6.5625 1.4582v-26.875m21.6667 26.875v-28.5417m-10.9375 29.0626v-30.7292" fill="none" stroke="#000" stroke-width=".5"/><path d="m391.5833 281.875-5.625 1.7708 5.625.625v-2.3959zm10.7292-4.1667-6.0417 2.1875 6.0417.2083v-2.5m10.9375 1.6668-6.0417 2.2917 6.0417.3125v-2.7083.1042zm3.5416 12.9166c-.3125-1.1458 3.5417-1.0417 3.5417-1.0417s1.0417 4.0625 0 6.5625l-3.2292-.625s.3125-2.7083-.3125-4.8958z" fill="#ff0018" stroke="#000" stroke-width=".5"/><path d="m375.75 300.1042 10.7292-10.4167-.5208 6.25s-5.5208 3.6458-5.5208 6.1458l-4.6875-1.9792zm5.7292 2.1875s1.0417-3.2292 4.1667-4.8958l-.3125 6.5625-3.8542-1.6666zm15.3125-18.0208s4.375-.625 7.7083 0c0 0-.5208 4.375 0 5.2083 0 0-6.0417-1.4583-8.4375.8333 0 0-.8333-4.1667.7292-6.0417zm-9.2709 1.0416s4.375-.5208 7.7083 0c0 0-.8333 5-.3125 5.7292 0 0-4.8958-2.7083-7.2917-.4167 0 0-1.6667-3.4375 0-5.2083l-.1042-.1042z" fill="#fff" stroke="#000" stroke-width=".5"/><path d="m387.3125 291.0417s4.375-.4167 7.6042 0c0 0-.5208 4.4792 0 5.2083 0 0-5.7292-1.25-8.125.8333 0 0-1.1458-4.0625.5208-6.0417zm8.75-.7292s6.25-.8333 9.4792-.3125c0 0-1.25 3.5417.3125 5.9375 0 0-6.7708-1.7708-9.375.3125 0 0-2.0833-4.0625-.4167-5.9375zm-9.375 6.7708 8.5417.625s-.8333 6.25-.3125 6.9792c0 0-6.875-1.5625-8.125.625 0 0-2.2917-5.625 0-8.2292zm9.5833 0s7.2917-.5208 10.7292 0c0 0-1.9792 4.6875.2083 8.75 0 0-9.5833-2.7083-10.9375-.5208 0 0-2.1875-5.625 0-8.2292zm11.25-12.8125s4.375-.625 7.6042 0c0 0-.5208 4.375 0 5.2083 0 0-6.0417-1.4583-8.3333.8333 0 0-.9375-4.1667.7292-6.0417zm0 6.0417s4.375-.5208 7.6042 0c0 0-.5208 4.375 0 5.2083 0 0-6.0417-1.3542-8.3333.7292 0 0-.9375-4.0625.7292-5.9375zm.5209 6.25s4.375-.625 7.7083 0c0 0-1.0417 6.875-.625 7.7083 0 0-5-2.3958-7.2917-.3125 0 0-1.4583-5.4167.2083-7.2917v-.1042z" fill="#fff" stroke="#000" stroke-width=".5"/><path d="m417.1042 297.0833s1.3542 5.2083 3.125 5.8333l-2.2917 2.9167s-3.0208-2.0833-3.3333-4.5833c0 0 1.9792-2.1875 2.5-4.1667z" fill="#fff" stroke="#000" stroke-width=".5"/><path d="m438.875 311.1458c-8.5952 13.9744-21.8912 24.4265-37.5 29.4792-15.7579-5.2089-29.1568-15.8394-37.8125-30h.1042c3.125-.7292 3.5417-1.5625 3.5417-1.5625s1.875 1.1458 3.5417 1.4583 4.375-.8333 4.375-.8333 1.0417.5208 2.5.8333c1.3542.3125 3.75-.8333 3.75-.8333s2.0833.8333 3.4375.8333 4.2708-.8333 4.2708-.8333 3.125 1.3542 4.1667 1.3542c1.1458 0 4.375-1.0417 4.375-1.0417s3.0208 1.4583 3.8542 1.4583c.7292 0 2.9167-1.4583 2.9167-1.4583s1.4583 1.7708 3.125 1.4583c1.5625-.2083 4.1667-1.3542 4.1667-1.3542s1.4583.9375 3.125 1.25 2.9167-1.25 2.9167-1.25.9375.9375 2.1875 1.25c1.4583.3125 3.4375-1.3542 3.4375-1.3542s.8333 1.25 2.8125 1.4583c1.875.3125 3.8542-1.3542 3.8542-1.3542s1.3542 1.5625 2.8125 1.3542c1.1458-.1042 2.6042-1.4583 2.6042-1.4583l3.4375 1.0417" fill="#006ac8"/><path d="m437.1042 313.75c-1.4583.1042-1.6667-.8333-1.6667-.8333s-2.0833 1.6667-3.9583 1.3542c-2.0833-.3125-3.0208-1.5625-3.0208-1.5625s-2.0833 1.6667-3.5417 1.3542c-.8842-.1685-1.7097-.5633-2.3958-1.1458 0 0-1.3542 1.4583-3.125 1.1458-1.6667-.2083-3.125-1.1458-3.125-1.1458s-2.8125 1.0417-4.5833 1.3542c-1.6667.3125-3.125-1.5625-3.125-1.5625s-3.9583 1.25-4.7917 1.25c-.9375 0-3.75-1.25-3.75-1.25s-1.9792 1.1458-3.125 1.1458-4.375-1.3542-4.375-1.3542-3.125.8333-4.4792.8333c-1.4583 0-3.6458-.8333-3.6458-.8333s-2.6042 1.0417-4.0625.8333l-2.5-.8333s-2.8125 1.0417-4.5833.8333c-1.6667-.4167-3.75-1.4583-3.75-1.4583s-.3125.7292-3.6458 1.4583h-.1042" fill="none" stroke="#000" stroke-width=".5"/><path d="m373.9792 317.9167s-.3125.7292-2.9167 1.25l-.7292.2083.625-.2083-.7292.3125c3.3252 4.5348 7.4565 8.4189 12.1875 11.4583 4.6875 3.125 10 6.875 19.1667 9.5833 6.5909-2.237 12.833-5.3931 18.5417-9.375 6.25-4.6875 9.5833-7.5 13.125-12.1875-2.8125 1.5625-2.3958 1.5625-3.8542 1.3542-1.3542-.3125-2.3958-1.3542-2.3958-1.3542s-1.3542 1.5625-3.125 1.3542c-1.6667-.3125-3.125-1.3542-3.125-1.3542s-2.2917 1.5625-4.5833 1.4583c-1.6667-.1042-3.125-1.6667-3.125-1.6667s-3.9583 1.3542-4.7917 1.3542c-.9375 0-3.75-1.3542-3.75-1.3542s-1.9792 1.25-3.125 1.25-4.375-1.4583-4.375-1.4583-3.125.8333-4.4792.8333-3.5417-.8333-3.5417-.8333-2.6042 1.0417-4.1667.8333c-1.3542-.3125-2.5-.8333-2.5-.8333s-2.8125 1.0417-4.5833.8333c-1.6667-.3125-3.75-1.4583-3.75-1.4583z" fill="#5ac800" stroke="#000" stroke-width=".6"/><path d="m401.5833 340.5208c6.2423-2.3371 12.2143-5.3406 17.8125-8.9583-1.0417 0-4.1667-1.0417-3.0208-1.25 0 0-1.25 1.0417-2.3958 1.0417s-4.375-1.3542-4.375-1.3542-3.125.7292-4.4792.7292c-1.4583 0-3.5417-.7292-3.5417-.7292s-2.7083 1.0417-4.1667.7292l-2.5-.7292s-2.9167 1.0417-4.5833.7292-3.75-1.3542-3.75-1.3542-2.5 1.3542-4.1667 1.4583c5.7211 4.4084 12.2243 7.6953 19.1667 9.6875z" fill="#ffd800" stroke="#000" stroke-width=".6"/><path d="m394.9167 259.375c1.9792-1.6667 3.125-3.125 2.3958-4.375-.7292-1.0417-1.875.625-3.125.2083 0 0-2.0833-1.1458-2.6042-2.0833-1.0417-1.25-2.6042-2.3958-3.4375-3.5417-.9375-1.0417-4.375-5.5208-9.4792-10.7292-1.5625-.9375-1.1458-4.5833-2.2917-5.7292 0-.8333-10.4167-11.0417-13.9583-14.5833-1.5625-1.1458-2.2917-1.875-4.8958.5208-2.0833 1.7708-2.8125 3.75-.1042 6.0417l13.3333 12.1875c1.9792 1.875 4.6875 2.1875 5.8333 3.125l13.5417 13.9583c1.7708 1.4583 2.6042 2.5 1.5625 3.75-1.0417 2.0833.1042 2.3958.3125 2.3958.2083.1042 1.1458.1042 1.7708-.4167l1.0417-.7292h.1042z" fill="#b34b00" stroke="#000" stroke-width=".5"/><path d="m361.0625 222.9167 13.9583 13.75" fill="none" stroke="#000" stroke-width=".5"/><path d="m379.9167 229.1667 1.1458-2.6042c.2083-.4167 3.9583-6.4583 5.8333-6.5625l11.7708 8.5417c0 .5208-5.2083 8.125-5.5208 7.5 0 0-13.75-5.7292-13.2292-6.875z" fill="#fff" stroke="#000" stroke-width=".6"/><path d="m387.4167 231.25c-1.6667-1.25-4.2708-2.5-6.4583-3.9583l-.9375 2.0833c.7292.8333 10.4167 5.3125 12.0833 6.25 0 0-1.875-2.0833-4.7917-4.375z" fill="#ccb8c8"/><path d="m380.9583 227.0833c1.692 1.1459 3.4295 2.2232 5.2083 3.2292 2.8125 2.0833 4.5833 4.1667 6.6667 5.4167" fill="none" stroke="#000" stroke-width=".4"/><path d="m357.3125 263.5417 26.5625-33.0208c.5208-.4167 3.0208-.4167 3.3333 2.0833l-25.2083 34.375s-2.8125-.3125-4.6875-3.5417z" fill="#782121" stroke="#000" stroke-width=".5"/><path d="m446.4792 263.8542c-1.0417.7292-2.5.8333-2.5.8333-1.7708-1.9792-3.125-4.1667-5.625-6.7708l-26.5625-32.6042 2.8125-2.7083 23.9583 28.0208c.625.7292 4.7917 5.1042 8.75 10.2083 0 0 .3125 2.0833-.8333 3.0208z" fill="#730000" stroke="#000" stroke-width=".5"/><path d="m420.8542 229.4792-4.1667-5.2083s-3.3333.5208-3.9583 2.1875c0 0-2.2917 3.8542-8.5417 4.2708 0 0 1.7708 7.2917 8.9583 11.1458 0 0 2.6042-7.5 5.2083-8.75 0 0 2.6042-1.9792 2.5-3.75v.1042z" fill="#fff" stroke="#000" stroke-width=".5"/><path d="m410.2292 252.0833c-.625-.3125-1.25 0-2.0833.4167-.9375.5208-1.875.3125-1.7708-.7292 0-.8333 0-.7292 1.0417-1.4583 1.5888-.8884 3.4751-1.0771 5.2083-.5208l-2.3958 2.1875m28.9582-28.8542c-.2083-.7292-.4167-1.4583.3125-2.2917s.7292-2.2917-1.0417-1.5625-2.2917 2.6042-.9375 5.625z" fill="#730000" stroke="#000" stroke-width=".5"/><path d="m409.6042 252.6042 30.1042-29.8958 7.3958 7.9167s-1.5625-.625-2.0833-.2083.5208 1.9792.5208 1.9792-1.3542-.5208-1.9792-.1042c-.7292.4167 0 2.0833 0 2.0833s-1.25-.8333-1.875-.5208c-.5208.4167 0 2.3958 0 2.3958s-1.5625-.5208-2.0833-.1042c-.3125.4167 0 2.0833 0 2.0833s-1.5625-.7292-2.3958 0 .4167 1.9792.4167 1.9792-2.0833-.8333-2.8125.4167c-.8333 1.25.1042 2.2917.1042 2.2917s-1.6667-.7292-2.0833-.4167c-.4167.4167 0 2.3958 0 2.3958s-1.3542-.8333-2.2917.2083.1042 2.0833.1042 2.0833-1.3542-.8333-2.0833-.4167c-.625.4167.2083 2.2917.2083 2.2917s-1.25-.9375-2.1875 0c-.9375 1.0417 0 2.0833 0 2.0833s-1.0417-1.0417-2.2917 0c-1.0417 1.0417 0 2.1875 0 2.1875s-1.5625-.8333-2.1875 0c-.7292.8333.2083 1.9792.2083 1.9792s-1.25-.7292-2.0833-.3125c-.7292.4167 0 2.1875 0 2.1875s-1.1458-1.3542-1.6667-.625c-.625.7292 0 2.5 0 2.5s-1.0417-1.3542-1.6667-.625c-.7292.625.4167 2.0833.4167 2.0833s-2.0833-.8333-1.5625-.8333l-6.1458-7.0833z" fill="#fff" stroke="#000" stroke-width=".5"/><path d="m437.9375 225.2083-2.2917 2.2917.5208 8.0208s.5208-2.2917 1.1458-.7292c0 0 .2083-1.875.7292-1.5625-.4167-.2083 0-8.125 0-8.125m-4.4791 4.4792-1.6667 1.5625.625 8.0208s.4167-3.0208 1.1458-.625v-8.9583m-18.3332 17.9167-1.5625 1.7708.4167 4.8958s.5208-3.125 1.1458-.7292l-.2083-2.7083.2083-3.125" fill="#7e4b7e"/><path d="m413.3542 227.3958c1.0417 1.0417 4.1667 5.2083 4.1667 5.2083m-2.7084-3.0208c-.2083.625-.625 2.3958-1.5625 3.3333m2.0833-2.9166c-.2083.4167-.2083 1.7708-1.5625 3.125m2.0834-2.5c-.3125.7292-.4167 1.25-.8333 1.7708m1.0416-1.0416c0 .4167-.3125.5208-.4167.8333m-3.3333-2.8125c-1.5695 1.13-3.2438 2.1067-5 2.9167m4.1667-1.875c-.9672.9072-2.0536 1.6781-3.2292 2.2917m2.9167-1.0417c-.5208.4167-1.5625 1.4583-2.3958 1.7708m1.8749-.5208c-.4167.5208-1.0417.8333-1.5625 1.1458" fill="none" stroke="#7e4b7e" stroke-width=".9"/><path d="m392.9375 234.0625c.3125-.625.9375-1.875 1.6667-2.9167 1.0417-1.4583 1.3542-1.6667 1.875-2.0833" fill="none" stroke="#7e4b7e" stroke-linecap="square" stroke-width=".9"/><path d="m294.7083 316.0417c1.5625.7292 0-5 .5208-7.0833.625-2.2917 5 5.4167 7.0833 6.4583 2.2917 1.0417 15.9375-5.4167 15.9375-5.4167l3.2292-6.0417 1.7708 5s3.75-4.375 4.7917-6.0417c1.1458-1.6667 0 3.2292-1.0417 4.8958-1.1458 1.5625 3.2292 2.1875 2.7083 5.5208-.5208 3.125 4.375-2.2917 4.375-2.2917l12.6042 1.0417s2.0833-7.6042 5.5208-11.9792l1.0417 5 5.2083-5.3125c7.4164 19.4239 23.2367 34.4397 43.0208 40.8333 18.7459-6.1734 33.9752-20.0388 41.875-38.125l6.9792 7.2917s5.5208-1.6667 6.5625-2.2917c5.592 1.3047 11.0112 3.2626 16.1458 5.8333 1.0417.7292.3125-3.6458.3125-3.6458s6.0417 1.1458 5.5208 4.375c0 0 1.25-3.0208 2.3958-3.5417s3.75 2.8125 4.375 3.8542c.5208 1.0417 13.5417 2.7083 15.3125 3.75 0 0 1.3542 1.6667 1.3542 2.8125 0 0 2.8125-.3125 4.8958-.3125 0 0-1.5625.8333-1.5625 2.5s-.8333 3.0208-2.5 3.75c-1.5625.8333 0 1.4583 2.0833 1.6667 2.2917.3125 0 3.125-4.2708 4.6875 0 0-1.0417 2.3958.8333 3.2292 0 0-3.8542.3125-4.375-.8333 0 0-1.3542 2.6042-1.3542 3.9583 0 0-4.1667-1.3542-5.2083-1.9792 0 0-1.6667 1.6667-.5208 2.3958 0 0-7.3958-.7292-8.8542-3.5417 0 0-2.6042.8333-2.0833 1.7708 0 0-5.2083-3.5417-6.875-3.5417l-1.0417 1.7708s-3.6458-2.0833-4.6875-2.0833-.2083 1.5625-.2083 1.5625l-5-3.0208-1.9792 3.125-5.2083-2.8125c-1.0417-.8333-1.25 1.6667-2.0833 1.9792 0 0-1.6667-2.2917-3.8542-1.9792 0 0-.8333 2.7083-.5208 3.5417l-7.3958-1.5625c-1.1458-.3125-.5208 1.25 0 2.3958 0 0-4.6875-1.3542-5.7292-2.0833l-.3125 2.0833s-3.8542-.3125-4.6875-1.0417l-2.3958 3.2292h-3.6458l-.7292 3.0208s-6.875-1.9792-7.5-.8333c-.5208 1.0417.3125 2.7083.3125 2.7083l-5.9375-.7292-.5208 2.3958s-6.9792-2.0833-8.5417-1.0417c0 0-2.0833 2.0833-3.5417 2.7083-1.3542.5208 0-.8333 0-.8333l-2.0833-3.0208s-2.5 1.3542-3.9583.8333c-1.3542-.625-5.7292 2.0833-7.0833 1.3542 0 0 0-1.9792-1.1458-2.5-1.0417-.4167-2.9167-.4167-3.75.8333l-2.2917-3.125c-1.25-2.2917-3.2292.1042-3.2292.1042l-.3125-2.6042-3.75-.3125c-2.2917-.3125-2.7083-2.2917-2.7083-2.2917s-5.8333.625-6.6667.3125l1.4583-1.3542s-7.9167 1.6667-9.5833 1.0417c-1.7708-.5208 1.875-2.7083 1.875-2.7083l-8.75-2.0833c-1.3542-.4167-9.375 1.25-10.4167 1.25s-1.6667-1.875-1.6667-1.875-1.875 1.6667-3.5417 2.1875c0 0-1.3542-3.2292-.5208-3.5417 0 0-5.2083 1.3542-5.5208 2.7083 0 0-1.25-2.0833-1.0417-3.125 0 0-2.5 3.9583-3.6458 4.7917-1.0417.8333-.2083-1.9792-.2083-1.9792s-3.0208 3.8542-4.1667 4.1667v-2.7083s-8.75 4.6875-11.1458 4.0625c0 0 0-1.9792.8333-2.5l-5.5208-.2083c-1.3542-.2083-2.9167-.8333-4.375-1.1458-1.3542-.2083 1.9792-1.6667 4.1667-1.0417 0 0-6.0417-2.1875-7.9167-1.0417 0 0-.8333-2.2917 2.3958-3.125 0 0-4.1667-4.0625-6.5625-3.75 0 0 2.7083-1.6667 5-.8333 0 0-2.6042-6.875-4.1667-7.7083 0 0 5.7292-1.0417 7.3958-.2083z" fill="#289400" stroke="#060" stroke-width=".5"/><path d="m286.2708 196.6667 74.0625-38.3333c.3125-2.0833-.7292-3.5417-1.9792-5.2083-21.1458 10.4167-40.4167 23.125-63.9583 30.7292-1.3542.5208-13.0208 5.4167-19.0625 12.6042-1.1888 1.2923-1.9207 2.9391-2.0833 4.6875 0 0 .2083 3.2292.9375 4.1667 0 0 .1042.8333 1.25 1.5625 0 0 .7292.3125 1.1458.2083.5208 0 1.4583 0 2.7083-2.0833 2.0433-3.0031 4.3813-5.7947 6.9792-8.3333z" fill="#730000" stroke="#000" stroke-width=".5"/><path d="m345.8542 158.75 9.5833-4.5833s3.2292 2.3958 2.9167 5.2083c0 0 .7292 6.25 8.5417 10.625 0 0-6.5625 8.3333-18.125 8.9583 0 0 1.25-10.8333-1.1458-14.0625 0 0-.4167.4167-.2083-.1042.3125-1.0417-.2083-4.6875-1.7708-5.5208l.2083-.5208z" fill="#fff" stroke="#000" stroke-width=".5"/><path d="m357.1042 160c-2.0833.8333-8.6458 4.2708-8.6458 4.2708m5.4166-2.1875c0 1.0417-.625 3.4375 0 5.2083m-.8333-4.8958c0 .5208-.8333 2.2917 0 4.7917m-1.0417-4.2708c-.2083 1.0417-.4167 1.5625 0 2.7083m-.8333-2.0833c-.2083.5208 0 .8333 0 1.25m6.0417-1.5625c.3125.7292 3.0208 5 4.6875 6.7708m-4.2709-4.8958c.3125.8333 1.7708 3.75 2.9167 4.8958m-3.125-3.125c.4167 1.0417 1.1458 2.8125 2.0833 3.8542m-2.0833-1.875c.2298.9273.6174 1.8082 1.1458 2.6042" fill="none" stroke="#7e4b7e" stroke-width=".8"/><path d="m425.2292 154.4792 27.1875 13.3333c5.4167 2.6042 7.3958.2083 10.4167 1.5625l53.75 27.2917c4.6875 2.0833 7.2917 2.6042 6.5625 5-.1042 3.8542 1.7708 3.8542 2.2917 3.9583.4167 0 2.1875-.2083 2.9167-1.25l.625-.625c.625-.625.5208-.7292.7292-1.0417 2.1875-3.125 3.4375-6.0417 1.0417-7.8125-2.6042-1.3542-2.9167 1.5625-5.8333 1.25 0 0-5-1.875-6.875-3.2292-3.3333-1.875-8.125-4.0625-9.1667-5.2083-3.4375-.625-29.1667-15.2083-43.8542-22.5-1.5625-1.25-2.3958-6.1458-5.5208-7.7083-.8333-1.3542-20.625-10.4167-31.0417-15.625-3.75-1.3542-5.9375-2.2917-8.6458 2.3958-2.3958 4.5833-1.875 7.0833 5.4167 10.2083z" fill="#b34b00" stroke="#000" stroke-width=".5"/><path d="m427.5208 148.75 30.4167 15.2083" fill="none" stroke="#000" stroke-width=".5"/><g stroke-miterlimit="3.84"><path d="m336.7 165.1c-.2.6-.7.2-.7.4-.4 2.2-.3 3.3-.8 4.5-.7593 1.149-1.8364 2.0523-3.1 2.6-2 .7-4.5 3.1-8.5.9l-.6-.5s1.1 4.1-3 6.2l-15.7 8.2s-1.5 2.8-.5 6.5c0 .6.3 1.1-.3 1.5-1 .7-2.7 2.8-3.7 6 0 0-3-1.3-3-3.2 0-2 1.2-3 1.5-4.4.3-1.3 1-4.7.7-5.7-.4-1.1-2.3-1.5-3-2-.6-.3-1.4.5-1.3 1.4.1 1 .8.8 1.6 1 0 0-.9 2-.8 3.4l-9.2 4.8 1.6 2.3c.4.7 1.3 10.2 4 14.7s3.7 3.2 4.3 3.8l2 2c.8.5 4 .8 4.5-1 .6399-1.6518 1.7531-3.078 3.2-4.1 2-1.6 6-5.4 6-7.2 0 0 2.3 6.8 2 12.4 0 0 8.5 1.7 16.1 1.9 7.6 0 11.5-1.5 11.5-1.5s1-6.4.6-7.7c0 0 1.2 4.2 2.2 5.6 1 1.8 2.1 5.3 4.3 5.5 2.2.1 4-2.1 4.2-3v-6.8h8.7s3.8 1.5 5 1.3c1.3-.1 2-1.3.8-1.7l-.4-.3c1.2 0 2.6.7 2.6.7h4.3l-.1-.5c-.3-1.2-2.6-2.2-4.2-3-1.6-.5-3.5-1.2-4.7-1.3-2.0749-.1904-4.1668-.0555-6.2.4-.8 0-3.9.4-5.8 1.3-.5.3-1 .4-.8-1 .3-1.3.2-7.8-1.3-10.5-1.2-2-1-3.6-.9-5.2.1484-2.9315.1484-5.8685 0-8.8-.3-1.7-2.5-4-6.6-4.4-3.8-.5-7-3.7-7.3-6.2-.3-2.6.4-7.2.8-9.3" fill="url(#a)" stroke="#000" stroke-width=".48"/><path d="m319.4 153.6c-.7 3.3-.7 6.1-.6 9.3.1 2.1 1.1 4.6 2 6.7.6028 1.5081 1.5638 2.8466 2.8 3.9 3.6 2.3 7-.2 8.9-1 1.1253-.5511 2.0641-1.4203 2.7-2.5.5-1.2.3-2.1.8-4.5l.7-.4c1-1.5.7-2 1.2-3 .6-1-.5-2.2-1.8-2 .6-1.9 1-4 .4-5.9-.2-.6.5-2.2-.6-1.8-4.6 1.8-10 1.4-14.8 1.4-.4 0-.8-.8-1.4-.7z" fill="url(#b)" stroke="#000" stroke-width=".48"/><path d="m319 155.3c-.5-.4-.6-1.3 0-3.2.7-2 0-2 1.1-3.2s.9-1.6 1.6-1.9c.7-.2 2.8-.2 3.5-.5 2.8198-1.3796 6.0946-1.4888 9-.3 1.5.8 2.5 2.8 3.4 3.6 1 .7 1.7 3.6 1.5 7.9-.3 4.3-1.2 3.5-1.2 3.5s-1.2-2-2.2-.3c0 0 0-1.7.2-3 .1-1.1-.6-3.4.1-4.9 0 0-5.8 1.8-8.7 1.7-3-.2-7.4-.9-7.6-1.6z" stroke="#000" stroke-width=".48"/><path d="m322 151.8c-.3-.6-1.8-2.9-.6-3.6 1-.6.4 2.8 2 3.5 0 0-.6 1.5-1.4.1z" fill="#fff" stroke="#fff" stroke-width=".48"/><path d="m325.3 160.1-.9 3.2m10.6 1.6c.2.6.4.3 1 .4m.3-4c.5-.5 1.2-.2.8 1.3m-17.7-4.9 2.8 1c1.5.6.6 2.9.2 4.3-.2.7-1 2-.6 2.5.5.8 1.1.3 2 .4 0-.3.6-.5.8-.5.7 0 1.1.5 1.7.3.6-.3.5-1.2.3-1.7m-.1001-4.5c0-.4 1-.8 1.5-.9 2.1-.4 3.6-.7 5.4.5m-5.7 11.1c-1.8.4-3.6.7-5.2-.2m0-.8c.8-.4 1.1-.8 2.1-.3.3497-.1759.7189-.3102 1.1-.4.8 0 1.4.3 2.2.8m-5.5.3c1-.3 3.3-.3 5.4.1" fill="none" stroke="#000" stroke-width=".48"/><path d="m319.3 160.1c.7 0 1.6-.9 3.2.3 1.1.8-1.8 1.5-1.3 1.4-1.4.2-1.8-.5-1.9-1.2 0-.1-.2-.5 0-.5zm8.4.8c.7-1.4 1.8-1 2.8-.8 1 .3.7.1 1.7.7-1.2.1-.9.2-1.7.6-.9.5-1.7.7-2.3.3-.2-.2-.7-.5-.7-1 0 .2 0 .3.2.3z" fill="#fff" stroke="#000" stroke-width=".288"/><path d="m320.8 161.4c.4 0 .7-.4.7-.8 0-.6-.3-1-.7-1-.5 0-.9.4-.9 1 0 .4.4.8.9.8zm8.6.2c.4 0 .7-.4.7-1 0-.4418-.3582-.8-.8-.8-.4 0-.7.3-.7.8 0 .6.4 1 .8 1z" stroke="#000" stroke-width=".288"/><path d="m372.9 213.7c-.4735-.6517-1.1373-1.1408-1.9-1.4l-2-1c-.7-.4-1.7-.5-2.4-.9m.5 2.6-.9-.5c-.3 0-.7 0-1-.2 0 0 0-.2-.2-.2-.943-.0907-1.8089-.5597-2.4-1.3m-62.8-9.3c1 .7 3.2 2.2 3.4 5.1.18 1.0448.5171 2.0562 1 3m-13.2-7.6c.5 1.7.6 7.4 6 13.4m-5-21.4c-.4 1.1-1 2.2.2 3m14.4 10.7c1.1-2.6 4.6-2.4 4.6-4.8" fill="none" stroke="#000" stroke-width=".48"/><path d="m311.8 207.3c-.3-2.9-1-4.5-.4-8.7.2-1.2.4-5.9 0-8.1 0 0 1.6 7.8-3.7 9.3m34.4 12.5c0-4 1-6.2 1-6.2 1.2-5.6-1.2-7.7-.3-9.1.9-1.2 2-3.8.5-8.9 0 0 2.8 10.5-4.5 10.5-7.5 0-7.2-2.7-7.2-2.7" fill="none" stroke="#000" stroke-width=".48"/><path d="m311.4 190.5c0 2 0 8.4 9 8.4 2.8 0 5.8-2 7.4-3.3m2.2-2.7c-.3-2-.3-4.4-.3-7m-13.6-3.4c2.4-.3 4.4-.6 9-.6m.2-6.3c.5 2.2-.3 5.8 4 6.3m4.3-7.1c-.6 1.6-.6 3.3-.8 4.4m.2 2.7c1.7 0 5-1.1 9-.3m1.4 22.8c.9 1.6 1 3.8 3.6 6.2m-31.7-11.4c.2 1.3-1.8 5.7-.3 9.3 1.365 3.6497.9198 7.7304-1.2 11m6.7-19c-.9 1.7-2.3 3.3-2.6 4.7m6.6-1.6c0 1-2.7 8.7-4.7 10.9 0 0 3.6 1.4 3 6.6m7.4-21c0 1.2-.2 1.6 1 2.4m2.4 0c1.3 1.6 5.5 6.5 4.6 9.2m-7.4-6.5c.3 1 .3 6.3-.6 9m-2.1-.2c-1.1 0-2.8.8-3 2.7m8.7-3c1.1-.3 3.3 1.6 3.3 7m15.7-10.2c-2.1.6-3 1.7-2.4 1.1-1.1 1-2.2 1.6-2.2 1.6" fill="none" stroke="#000" stroke-width=".48"/><path d="m316.8 198c.6 0 1.1-.4 1.1-1 0-.3-.5-.7-1.1-.7-.5 0-1 .4-1 .8 0 .5.5.9 1 .9zm23 .3c.6 0 1.1-.4 1.1-1 0-.4-.5-.7-1-.7-.6 0-1.1.3-1.1.8s.5.9 1 .9z" stroke="#000" stroke-width=".288"/><path d="m307.5 239.8c1.3-8 5-14.5 5.1-15.2 0 0 3.9.9 10.6 1.5 6.6.7 8.4.4 11.5.2l6.8-.8s1.2 2.4 1.3 4.8c.3 5.2 2.3 27.7 2.5 33.7 0 0 .8 3.6.8 12.3 0 9.6 2.6 29 2.6 39.4l-2.6.5s-14.5 1.1-14.5-.8c0-2.1-.8-27 1.4-42.1 0 0-.5-3-1.4-5.5-.8-2.5-4.3-10-4.3-11.7 0 0-5.7 16-6 18.8-.3 2.6-1.2 38.4-1.7 41.3 0 0-8.2 6.3-9.3 7-1.1.4-9-3.4-9.3-4.4.6505-11.1711 2.1888-22.2728 4.6-33.2 1.4-7.1.6-8.4.6-10.4s.1-27.5 1.3-35.4z" fill="#fff" stroke="#000" stroke-width=".48"/><path d="m321.3 275c-.6 2.2-1.7 4.3-3.6 5.7m-2.7-53.6c-.3 1.3-2.3 7.3-7.2 10.9m14.2999-9.8c-1.1 3.6-5.5 22.7-6.3 45.4m-.2999 7.1-1.7 20.8m-.8 3c-1.7256 6.086-2.6335 12.3745-2.7 18.7m32.2-36c-.2 2-1 15.7 3.6 28m-18.5-86c-.3 2.3-.8 16.7-.8 17.8 0 1.2 1.6 2.8 2.4 3 0 0-1.6.6-2 6m-4-12.8c-.3 1.7-2 8.5-3 11.3m13-25.5s5 1 5.3 0c0 0 1.6 29.5 3.8 46m-11.2001-42.2-.6 16.5m2.5 2.1s1.9 2.8 1.4 4m-17.8-28 3 .8m5.2001 1.6c-.3.9-.6 4.6-.6 4.6m8.7999 38.9c.6.8 1.4 2 .8 4.4" fill="none" stroke="#000" stroke-width=".48"/><path d="m312 224.4s0-3.2 1.1-4.8c0 0 3.5.7 8.4 1.2 5 .5 9 .9 12.6.5 3.7-.4 7.4-1.3 7.4-1.3s1 4.8.5 5.5c0 0-4 .8-8.3 1-4.8472.1426-9.6979-.125-14.5-.8-2.459-.2744-4.8975-.7087-7.3-1.3z" fill="#9b5f00" stroke="#000" stroke-width=".48"/><path d="m315 224.8.7-4.8h1l-.2 5.1-1.4-.2m22-4.1.1 5.5 1.3-.2-.1-5.6zm-15.6 0-.4 5.3h.7l.7-5.3z" fill="#fff" stroke="#000" stroke-width=".48"/><path d="m303.8 320.8c-.3 1.3-.8 3.2-1 5.5 0 .5-.6 3.3 1 3.4 1 0 1.4-2.9 1.4-2.9s-1 3.3.3 3.7c1.8.4 2-3.6 2-3.6-.2 1.1-1.4 4 .3 4.3 1.9.3 2.4-3.9 2.4-3.9s-1.6 4.2.3 4.3c1.7 0 1.7-4 1.7-4s-.9 5 1.5 4.5c1.4-.2 1.7-2 2-3 .4-1.5 1.3-3.4.2-6.6-.8-2.3-.5-3-.5-3s-2.9 2.2-5.1 3.6c-1 .6-6.5-2.3-6.5-2.3zm29.7-4.4c-.5-.3-.4 1.9-.6 2.9-.1 1 .2 3.2 3.6 3 3.4-.3 6.7-1 8.9-.5 2.1.6 5.3.7 7 .7s2.8-.2 3.7-.5c.7-.3 2.2.4 3 .4s1.7-1 1.6-1.8c0-1.3-1.3-1.3-3-1.4-1.6998-.1384-3.3777-.474-5-1-1.1-.3-3.1-1.5-5.7-2l-5.9.2c-1 0-7 .3-7.6 0z" fill="#ffa54b" stroke="#000" stroke-width=".48"/><path d="m282.7 189.8c-.5.3-1.1-2 .4-2.9 0 0 .4-2 2-2.1 0 0 1.4-1.9 3.3-1.7 0 0 2.2-1.5 3-1.3.9.1 3 2.1 3 2.9.2.7 0 1.9-.5 2.4-.6.6-1-.1-1.1-1 0 0 .4 1.6-.8 2.2-1.2.7-1.1.2-1.2-.6 0 0-.4 1.6-1.2 1.9s-1.3-.5-2-.5c0 0 1.1.9.4 1.5-.7.5-1.5.3-2-.1-.5-.5-1.2-1.9-3.3-.6z" fill="#ffb366" stroke="#000" stroke-width=".48"/><path d="m292.7 186c-.5-1.5-2.2-3-4-2.8m2.2 4.4c-.3-.4-.4-.8-.8-1.2-.9-1.5-2.8-1.4-4.4-1.8m2.4 4.5c-.6-.4-.8-1.2-1.4-1.5-1-.4-2-.9-3.3-.7" fill="none" stroke="#000" stroke-width=".48"/><path d="m466.1 165.1c.7-.3.5.6.6 1 .4 1.3.4 2.7.9 3.9.6 1.1.8 1.5 1.8 2 1.6 1 6.4 3.6 9.8 1.5.2554-.1333.4911-.3016.7-.5 0 0-1.3 4.1 3 6.2l15.6 8.2s1.5 2.7.6 6.5c-.2.6-.4 1.1.2 1.5 1 .7 2.6 2.8 3.8 6 0 0 3-1.3 3-3.2 0-2-1.3-3-1.6-4.4-.2-1.3-1-4.7-.6-5.7.4-1.1 2.1-1.5 2.8-2 .7-.3 1.6.5 1.3 1.4 0 1-.8.8-1.6 1 0 0 1 2 .8 3.4l9.4 4.8-1.6 2.3c-.5.7-1.5 10.2-4.2 14.6-2.8 4.5-3.7 3.3-4.2 4l-2.1 1.8c-.6.5-3.8.9-4.5-.9-.6128-1.639-1.6901-3.0638-3.1-4.1-2-1.6-6-5.4-6-7.2 0 0-2.3 6.8-2 12.4 0 0-8.4 1.7-16.2 1.9-7.6 0-11.5-1.5-11.5-1.5s-1-6.4-.6-7.7c0 0-1.2 4.2-2 5.6-1.1 1.8-2.2 5.3-4.4 5.5-2.2.1-4-2.1-4.2-3v-6.8h-8.7s-3.8 1.5-5 1.3c-1.3-.1-1.9-1.3-.9-1.7l.4-.3c-.8697.0754-1.7176.3128-2.5.7h-4.3l.1-.5c.3-1.2 2.6-2.2 4.3-3 1.6-.5 3.3-1.2 4.6-1.3 1.9-.2 3.2-.1 6.2.4.8 0 4 .4 5.8 1.3.5.3 1 .4.8-1-.3-1.3-1.2-5.5.3-8.3 1-1.9.9-3.5.8-5.2-.2-1.7-1.1-5.6-1.1-7.3 0-5.7 4.4-8 8.2-9.2 4.3-1.4 7.1-2.8 7-5.3-.2-2.7.5-7 .1-9" fill="url(#c)" stroke="#000" stroke-width=".48"/><path d="m483.3 153.6c.6393 1.7038 1.043 3.487 1.2 5.3 0 1.2-.5 1.4-.1 2.8.7 2.4-.8 5-2.5 8-.8 1.2-1.4 3-2.7 3.8-3.4 2.1-7.5-.4-9.6-1.3-.9449-.4214-1.6703-1.2193-2-2.2-.4-1.2-.5-2.3-.8-4 0-.3 0-1.2-.6-.9-1.3-1.4-1-2-1.6-3-.5-1 1-2.2 2-2-.6589-1.9017-.7286-3.958-.2-5.9.2-.6-.6-2.2.5-1.8 4.5 1.8 10 1.4 14.8 1.4.4 0 .7-.8 1.3-.7z" fill="url(#d)" stroke="#000" stroke-width=".48"/><path d="m483.8 155.3c.4-.4.1-2.3-.4-4.3-.1-1-1-1.5-2-2.6s-1.6-1-2.3-1.4c-.6-.2-2-.2-2.8-.5-.6-.3-2.2-.1-3.7.1-2 .3-3.2.2-4.7 1s-2.8 1.8-3.3 3.3c-.4 1-1 2.5-.8 6.8s1 3.5 1 3.5 1.1-1.7 1.9-.6l-.3-3.6c-.1-1.2 0-2.8.5-4.6 0 0 4.6 1.7 9 1.7 3 0 7-.3 7.1-1l.7 2.2h.0999z" stroke="#000" stroke-width=".48"/><path d="m477.4 160.1c.7 1.8.1 1.3.4 2.4m-10.2 2c0 .8-.6.6-1 .6" fill="none" stroke="#000" stroke-width=".48"/><path d="m483.9 158.8c-1-.7-2.7-.2-3.5.1-1.5.7-.7 2.3-.2 3.7.2.7 1 1.7.5 2.4-.4.8-.7.4-1.6.5 0-.3-.8 0-1.1 0-.6 0-1 .4-1.5.2-.6-.3-.5-1.2-.3-1.7m.1-4.5c0-.4-1.3-.8-2.7-.9-2.3 0-2.5.1-4.2 1.3m11.5 9c-.4-.6-1-1-2.1-.4 0-.2-1.6-.4-1.6-.4-.8 0-1.3.3-2.1.7m5.5999.6c-1-.6-3.3-.2-5.6-.2m.2.8c1.7.5 3.5.8 5.2 0" fill="none" stroke="#000" stroke-width=".48"/><path d="m483.4 160.1c-.7 0-1-.9-3.1.3-1.1.7 1.8 1.5 1.4 1.4 1.2.2 1.6-.5 1.7-1.2 0-.1.2-.5 0-.5zm-8.3.8c0-.8-1.8-1-2.9-.8-1 .3-.5.1-1.5.7 1 .1.7.2 1.6.6.9.5 1 .9 2.3.3.3-.1.7-.5.8-1 0 .2-.2.3-.3.3z" fill="#fff" stroke="#000" stroke-width=".288"/><path d="m482.1 161.4c-.4418 0-.8-.3582-.8-.8 0-.6.3-1 .8-1 .4 0 .7.4.7 1 0 .4-.3.8-.7.8zm-8.7.2c-.4 0-.7-.4-.7-1 0-.5.4-.8.8-.8s.7.3.7.8c0 .6-.3 1-.8 1z" stroke="#000" stroke-width=".288"/><path d="m429.9 213.7c.4735-.6517 1.1373-1.1408 1.9-1.4l2-1c.7-.4 1.7-.5 2.4-.9m-.5 2.6.9-.5c.3 0 .7 0 1-.2 0 0 0-.2.2-.2.943-.0907 1.8089-.5597 2.4-1.3m62.8-9.3c-1 .7-3.2 2.2-3.4 5.1-.18 1.0448-.5171 2.0562-1 3m13.2-7.6c-.5 1.7-.6 7.4-6 13.4m5-21.4c.4 1.1 1 2.2-.2 3m-14.4 10.7c-1.1-2.6-4.6-2.4-4.6-4.8" fill="none" stroke="#000" stroke-width=".48"/><path d="m491 207.3c.3-2.9 1-4.5.4-8.7-.2-1.2-.4-5.9 0-8.1 0 0-1.6 7.8 3.7 9.3m-34.4 12.5c0-4-1-6.2-1-6.2-1.2-5.6 1.2-7.7.3-9.1-.9-1.2-2-3.8-.5-8.9 0 0-2.8 10.5 4.5 10.5 7.5 0 7.2-2.7 7.2-2.7" fill="none" stroke="#000" stroke-width=".48"/><path d="m491.4 190.5c0 2 0 8.4-9 8.4-2.8 0-5.8-2-7.4-3.3m-2.2-2.7c.3-2 .3-4.4.3-7m13.6-3.4c-2.4-.3-4.4-.6-9-.6m-.2-6.3c-.5 2.2.3 5.8-4 6.3m-4.3-7.1c.6 1.6.6 3.3.8 4.4m-.2001 2.7c-1.7 0-5-1.1-9-.3m-1.3999 22.8c-.9 1.6-1 3.8-3.6 6.2m31.7-11.4c-.2 1.3 1.8 5.7.3 9.3-1.365 3.6497-.9198 7.7304 1.2 11m-6.7001-19c.9 1.7 2.3 3.3 2.6 4.7m-6.6-1.6c0 1 2.7 8.7 4.7 10.9 0 0-3.6 1.4-3 6.6m-7.3999-21c0 1.2.2 1.6-1 2.4m-2.4 0c-1.3 1.6-5.5 6.5-4.6 9.2m7.4-6.5c-.3 1-.3 6.3.6 9m2.1-.2c1.1 0 2.8.8 3 2.7m-8.7-3c-1.1-.3-3.3 1.6-3.3 7m-15.7-10.2c2.1.6 3 1.7 2.4 1.1 1.1 1 2.2 1.6 2.2 1.6" fill="none" stroke="#000" stroke-width=".48"/><path d="m486 198c-.6 0-1.1-.4-1.1-1 0-.3.5-.7 1.1-.7.5 0 1 .4 1 .8 0 .5-.5.9-1 .9zm-23 .3c-.6 0-1.1-.4-1.1-1 0-.4.5-.7 1-.7.6 0 1.1.3 1.1.8s-.5.9-1 .9z" stroke="#000" stroke-width=".288"/><path d="m495.3 239.8c-1.3-8-5-14.5-5.1-15.2 0 0-3.9.9-10.6 1.5-6.6.7-8.4.4-11.5.2l-6.8-.8s-1.2 2.4-1.3 4.8c-.3 5.2-2.3 27.7-2.5 33.7 0 0-.8 3.6-.8 12.3 0 9.6-2.6 29-2.6 39.4l2.6.5s14.5 1.1 14.5-.8c0-2.1.8-27-1.4-42.1 0 0 .5-3 1.4-5.5.8-2.5 4.3-10 4.3-11.7 0 0 5.7 16 6 18.8.3 2.6 1.2 38.4 1.7 41.3 0 0 8.2 6.3 9.3 7 1.1.4 9-3.4 9.3-4.4-.6505-11.1711-2.1888-22.2728-4.6-33.2-1.4-7.1-.6-8.4-.6-10.4s-.1-27.5-1.3-35.4z" fill="#fff" stroke="#000" stroke-width=".48"/><path d="m481.5 275c.6 2.2 1.7 4.3 3.6 5.7m2.7-53.6c.3 1.3 2.3 7.3 7.2 10.9m-14.3-9.8c1.1 3.6 5.5 22.7 6.3 45.4m.3 7.1 1.7 20.8m.8 3c1.7256 6.086 2.6335 12.3745 2.7 18.7m-32.2-36c.2 2 1 15.7-3.6 28m18.5-86c.3 2.3.8 16.7.8 17.8 0 1.2-1.6 2.8-2.4 3 0 0 1.6.6 2 6m4-12.8c.3 1.7 2 8.5 3 11.3m-13-25.5s-5 1-5.3 0c0 0-1.6 29.5-3.8 46m11.2-42.2.6 16.5m-2.5 2.1s-1.9 2.8-1.4 4m17.8-28-3 .8m-5.2 1.6c.3.9.6 4.6.6 4.6m-8.8 38.9c-.6.8-1.4 2-.8 4.4" fill="none" stroke="#000" stroke-width=".48"/><path d="m490.8 224.4s0-3.2-1.1-4.8c0 0-3.5.7-8.4 1.2-5 .5-9 .9-12.6.5-3.7-.4-7.4-1.3-7.4-1.3s-1 4.8-.5 5.5c0 0 4 .8 8.3 1 4.8472.1426 9.6979-.125 14.5-.8 2.459-.2744 4.8975-.7087 7.3-1.3z" fill="#9b5f00" stroke="#000" stroke-width=".48"/><path d="m487.8 224.8-.7-4.8h-1l.2 5.1 1.4-.2m-22-4.1-.1 5.5-1.3-.2.1-5.6zm15.6 0 .4 5.3h-.7l-.7-5.3z" fill="#fff" stroke="#000" stroke-width=".48"/><path d="m499 320.8c.3 1.3.8 3.2 1 5.5 0 .5.6 3.3-1 3.4-1 0-1.4-2.9-1.4-2.9s1 3.3-.3 3.7c-1.8.4-2-3.6-2-3.6.2 1.1 1.4 4-.3 4.3-1.9.3-2.4-3.9-2.4-3.9s1.6 4.2-.3 4.3c-1.7 0-1.7-4-1.7-4s.9 5-1.5 4.5c-1.4-.2-1.7-2-2-3-.4-1.5-1.3-3.4-.2-6.6.8-2.3.5-3 .5-3s2.9 2.2 5.1 3.6c1 .6 6.5-2.3 6.5-2.3zm-29.7-4.4c.5-.3.4 1.9.6 2.9.1 1-.2 3.2-3.6 3-3.4-.3-6.7-1-8.9-.5-2.1.6-5.3.7-7 .7s-2.8-.2-3.7-.5c-.7-.3-2.2.4-3 .4s-1.7-1-1.6-1.8c0-1.3 1.3-1.3 3-1.4 1.6998-.1384 3.3777-.474 5-1 1.1-.3 3.1-1.5 5.7-2l5.9.2c1 0 7 .3 7.6 0z" fill="#730000" stroke="#000" stroke-width=".48"/><path d="m518.6 193.5c.5.2 2-2 .5-3 0 0-.5-2-2-2 0 0-1.4-2-3.4-1.7 0 0-2-1.5-2.9-1.4-1 .2-3 2.2-3 3-.2.5 0 1.8.5 2.4.6.5 1-.1 1-1 0 0-.3 1.5.9 2.2s1.1 0 1.2-.7c0 0 .3 1.6 1.1 2 .9.2 1.4-.5 2-.5 0 0-1 .8-.3 1.3.7.6 1.5.3 2 0 .6-.5.3-1.8 2.4-.6z" fill="#730000" stroke="#000" stroke-width=".48"/><path d="m509.5 189.8c.5-1.8 2.2-3.2 4-2.9m-2 4.4c.1-.4.2-.8.5-1.2 1-1.6 3-1.6 4.6-1.9m-2.5 4.5c.6-.4.8-1.1 1.4-1.4.966-.5654 2.0862-.8104 3.2-.7" fill="none" stroke="#000" stroke-width=".48"/></g><path d="m509.3 186.8c-.9.7-1.8 1.8-1.9 2.2 0 .7 0 1.9.5 2.5.6.5 1 0 1.1-.8 0 .5 0 1.5.8 2 1.3.7 1.2.1 1.3-.7 0 0 .3 1.6 1 2 .9.2 1.4-.5 2-.5 0 0-1 .8-.3 1.3.7.6 1.5.3 2 0 .6-.5.3-1.8 2.5-.6.2.2.8-.4 1-1.1l-7.7-5.5z" fill="#730000"/><path d="m507.7 188.2c-1.5 2.6.5 4.1 1.1 2.6-.1 2.4 1.7 2.3 2.3 1.5.7 2.5 1.9 1.4 3 1.2-1.3 2.3 1.4 1.6 2 1 1-1.3 1.4-.2 2-.3l1.3-1.3m-8-5.7c-1.7 1-2.5 2.2-2.6 3.7m5-2.2c-1.8 1-2.6 2.2-2.6 3.7m5.4-1.7c-1.7.9-1.8 1.7-2.5 2.8" fill="none" stroke="#000" stroke-miterlimit="3.84" stroke-width=".48"/><path d="m317.1042 323.6458-.2083-4.6875 1.9792 1.6667.4167-3.5417c.8333-.2083 2.1875 1.3542 2.1875 1.3542l-.2083-3.5417 2.9167 3.2292s-.2083-2.7083.8333-4.375c0 0 2.2917 1.9792 2.2917 4.1667 0 1.9792 1.875-2.7083 1.875-2.7083.5541 1.7366 1.1096 3.4727 1.6667 5.2083l1.3542-1.9792 1.0417 4.1667 2.5-3.6458 1.875 4.1667 4.375-.3125.5208 2.5 1.9792-2.0833 2.5 1.5625s2.0833-.625 3.2292-.625 2.5 1.4583 2.5 1.4583.8333-1.4583 1.5625-1.9792 1.9792.8333 2.2917 1.6667l1.6667-3.0208s2.0833 2.0833 2.3958 3.0208c0 0 .3125-2.5.8333-3.3333.5208-.7292 1.25.3125 1.875 1.3542l1.3542-4.375s1.4583.3125 2.3958 1.9792c1.1458 1.5625 1.1458-2.5 1.1458-2.5s2.5 3.3333 3.125 5.5208c0 0-16.875 5.8333-28.75 4.1667-8.5641-1.1465-17.0781-2.6408-25.5208-4.4792m115.5205-.521s.7292-2.1875 1.875-3.3333c0 0 2.0833 2.5 2.0833 3.3333l1.7708-1.0417 1.6667 1.5625 1.875-1.3542 1.875 1.6667 3.3333-1.4583 1.3542 1.4583 5.2083-.625 1.875.8333 1.875-2.3958 1.6667 1.875 2.8125-2.7083s1.3542 1.0417 1.5625 1.875c0 0 2.2917-1.0417 2.8125-1.875 0 0 2.0833-.8333 2.3958.5208 0 0 1.3542-1.0417 1.25-2.0833-.1042-1.25 1.5625-.4167 2.0833 1.0417 0 0 .5208-2.2917 2.0833-2.5 0 0 1.25 1.3542.9375 3.8542 0 0 2.3958-1.9792 3.5417-2.1875 0 0 .5208 2.7083-.3125 5.2083 0 0 2.5-4.1667 3.125-2.8125.1042.8333.7292 3.6458.1042 5.5208l2.2917-1.3542.8333 2.7083 2.3958-.5208s-14.4792 2.1875-28.125.9375c-13.5417-1.3542-26.3542-6.1458-26.3542-6.1458m-9.9999 10.1042c.625-.4167-4.5833 10.7292-17.1875 11.3542-17.6042.8333-32.6042-8.0208-32.6042-8.0208s1.875-3.0208 3.0208-3.8542c0 0 2.3958 1.9792 3.125 4.375 0 0 .4167-1.5625 1.25-3.0208 0 0 3.0208 1.4583 3.5417 3.3333 0 0 1.0417-1.875 1.875-2.3958.8333-.625 1.6667 2.0833 1.6667 3.75 0 0 1.9792-2.0833 3.125-2.0833 0 0 2.0833 1.0417 2.7083 4.4792 0 0 2.0833-1.875 2.7083-1.5625 0 0 2.3958 1.5625 1.875 3.8542-.3125 1.25 2.3958-1.4583 5.7292-2.2917l3.0208 2.2917 3.5417-4.8958s2.1875.8333 2.1875 2.0833c0 0 1.0417-3.8542 1.875-4.1667.8333-.5208 1.875 1.1458 1.875 2.2917 0 0 .3125-2.9167 1.9792-3.5417 0 0 1.6667 1.0417 1.6667 2.1875 0 0 1.6667-3.3333 3.0208-4.1667z" fill="#5ac800"/><path d="m317.1042 323.6458-.2083-4.6875 1.9792 1.6667.4167-3.5417c.8333-.2083 2.1875 1.3542 2.1875 1.3542l-.2083-3.5417 2.9167 3.2292s-.2083-2.7083.8333-4.375c0 0 2.2917 1.9792 2.2917 4.1667 0 1.9792 1.875-2.7083 1.875-2.7083l1.6667 5.2083 1.3542-1.9792 1.0417 4.1667 2.5-3.6458 1.875 4.1667 4.375-.3125.5208 2.5 1.9792-2.0833 2.5 1.5625s2.0833-.625 3.2292-.625 2.5 1.4583 2.5 1.4583.8333-1.4583 1.5625-1.9792c.8333-.5208 1.9792.8333 2.2917 1.6667l1.6667-3.0208s2.0833 2.1875 2.3958 3.0208c0 0 .3125-2.5.8333-3.3333.5208-.7292 1.25.3125 1.875 1.3542l1.3542-4.375s1.4583.3125 2.3958 1.9792c1.1458 1.5625 1.1458-2.5 1.1458-2.5s2.5 3.3333 3.125 5.5208m61.1455-.8335s.8333-2.1875 1.9792-3.3333c0 0 2.0833 2.5 2.0833 3.3333l1.7708-1.0417 1.6667 1.5625 1.875-1.3542 1.875 1.6667 3.3333-1.4583 1.3542 1.4583 5.2083-.625 1.875.8333 1.875-2.2917 1.6667 1.7708 2.8125-2.7083s1.25 1.0417 1.5625 1.875c0 0 2.2917-1.0417 2.8125-1.875 0 0 2.0833-.8333 2.3958.5208 0 0 1.3542-1.0417 1.25-2.0833-.1042-1.25 1.5625-.4167 2.0833 1.0417 0 0 .5208-2.2917 2.0833-2.5 0 0 1.25 1.3542.9375 3.8542 0 0 2.3958-1.9792 3.5417-2.0833 0 0 .5208 2.6042-.3125 5.1042 0 0 2.5-4.1667 3.125-2.8125.1042.8333.7292 3.6458.1042 5.5208l2.2917-1.3542.8333 2.7083 2.3958-.5208m-114.3749 8.3333s1.875-3.125 3.0208-3.8542c0 0 2.3958 1.875 3.2292 4.375 0 0 .3125-1.6667 1.0417-3.125 0 0 3.125 1.4583 3.6458 3.3333 0 0 1.0417-1.875 1.9792-2.3958.7292-.625 1.5625 2.0833 1.5625 3.75 0 0 1.9792-2.0833 3.125-2.0833 0 0 2.0833 1.0417 2.7083 4.5833 0 0 2.0833-1.9792 2.7083-1.6667 0 0 2.5 1.6667 1.875 3.8542-.3125 1.25 2.3958-1.4583 5.7292-2.1875l3.0208 2.1875 3.5417-4.8958s2.1875.8333 2.1875 2.0833c0 0 1.0417-3.75 1.875-4.1667.8333-.5208 1.9792 1.1458 1.9792 2.2917 0 0 .3125-2.9167 1.875-3.5417 0 0 1.6667 1.0417 1.6667 2.1875 0 0 1.6667-3.3333 3.125-4.1667" fill="none" stroke="#060" stroke-width=".5"/><path d="m401.4792 376.9792c22.9167.2083 36.4583-8.125 43.75-13.125 17.5-11.6667 21.1458-12.0833 23.9583-11.875 3.2292.3125 8.0208 1.3542 8.3333 4.1667.2083 4.4792-6.875 6.3542-10.9375 6.3542-4.1667 0-15.1042-2.7083-15.1042-2.7083l-2.8125 1.9792c1.875.8333 24.1667 8.3333 28.4375 1.25 4.375-7.0833 8.75-18.6458 8.75-18.6458s-4.8958-8.75-15.7292-8.75c-11.0417 0-21.6667 6.9792-28.75 12.1875-7.1875 5.2083-16.1458 12.2917-39.8958 12.2917-23.8542 0-32.9167-7.0833-40-12.2917-7.1875-5.2083-17.8125-12.1875-28.75-12.1875-6.4288.0094-12.4046 3.3118-15.8333 8.75 0 0 4.375 11.4583 8.75 18.75 4.2708 6.9792 26.5625-.5208 28.4375-1.4583l-2.7083-1.875s-10.8333 2.7083-15 2.7083-11.3542-1.875-11.0417-6.25c.2083-2.9167 5-3.9583 8.3333-4.2708 2.8125-.2083 6.4583.2083 23.8542 11.875 12.9222 8.859 28.2943 13.4488 43.9583 13.125" fill="#fff"/><path d="m364.6042 350s0-1.9792-.3125-4.7917c-.4167-3.6458-2.5-4.5833-4.1667-4.0625-1.25.4167-3.4375 3.125-3.4375 3.125v.1042c-1.0056-.6833-2.0489-1.3093-3.125-1.875 1.9103-1.6825 4.1431-2.9584 6.5625-3.75 1.0417 0 15.1042 5.625 19.5833 9.4792 1.0417 1.0417 1.875 7.2917 1.25 9.375-5.8719-1.4567-11.419-4.0006-16.3542-7.5m-6.7708 14.1666s-3.0208 3.125-3.125 8.6458c0 6.5625 4.6875 6.875 7.8125 6.7708 3.8542 0 6.875-2.1875 6.7708-9.2708 0 0-6.25-2.6042-11.4583-6.25m80.3125-14.1666.4167-4.7917c.4167-3.6458 2.5-4.5833 4.1667-4.0625 1.0417.4167 3.3333 3.125 3.3333 3.125v.1042l3.125-1.875c-.7292-1.0417-5.4167-3.75-6.4583-3.75s-15.1042 5.625-19.5833 9.4792c-1.0417 1.0417-1.875 7.2917-1.3542 9.375 5.8803-1.4329 11.4317-3.9788 16.3542-7.5v-.1042zm6.7709 14.2708s3.0208 3.125 3.125 8.6458c.2083 6.5625-4.6875 6.875-7.8125 6.7708-3.75 0-6.7708-2.1875-6.7708-9.2708 0 0 6.25-2.6042 11.4583-6.25" fill="#fff"/><path d="m351.2708 359.7917s-10.8333 2.7083-14.8958 2.7083c-4.1667 0-11.3542-1.875-11.0417-6.25.2083-2.9167 5-3.9583 8.3333-4.2708 2.3958-.2083 5.5208 0 17.7083 7.8125m100.1043 0s10.9375 2.7083 15.1042 2.7083c4.0625 0 11.1458-1.875 10.8333-6.25-.2083-2.9167-5-3.9583-8.2292-4.2708-2.3958-.2083-5.625 0-17.7083 7.8125m-86.875-9.6875c-1.0927-.7764-2.1694-1.5751-3.2292-2.3958-1.5625-1.1458-3.125-2.0833-4.6875-3.3333 0 0 2.1875-2.8125 3.3333-3.125 1.7708-.625 3.8542.3125 4.2708 3.9583.3125 2.8125.3125 4.8958.3125 4.8958m-7.3958 28.75c1.875 1.0417 4.0625 1.0417 5.3125.8333 3.8542 0 6.875-2.1875 6.7708-9.2708 0 0 4.6875 2.3958 12.2917 4.1667 0 0 1.25 1.5625 1.4583 4.5833.3125 2.6042-1.4583 5.3125-3.4375 5.2083 0 0-10.7292-2.0833-17.1875-3.125-3.8542-.7292-5.2083-2.3958-5.2083-2.3958m80.9375-28.75 3.3333-2.3958 4.5833-3.3333s-2.1875-2.8125-3.3333-3.125c-1.6667-.625-3.75.3125-4.1667 3.9583l-.4167 4.8958zm7.3959 28.75c-1.875 1.0417-4.0625 1.0417-5.3125.8333-3.75 0-6.7708-2.1875-6.7708-9.2708 0 0-4.6875 2.3958-12.1875 4.1667 0 0-1.3542 1.5625-1.5625 4.5833-.2083 2.6042 1.5625 5.3125 3.5417 5.2083 0 0 10.7292-2.0833 17.1875-3.125 3.75-.7292 5.2083-2.3958 5.2083-2.3958" fill="#69f"/><path d="m401.4792 376.9792c22.9167.2083 36.4583-8.125 43.75-13.125 17.5-11.6667 21.1458-12.0833 23.9583-11.875 3.2292.3125 8.0208 1.3542 8.3333 4.1667.2083 4.4792-6.875 6.3542-10.9375 6.3542-4.1667 0-15.1042-2.7083-15.1042-2.7083l-2.8125 1.9792c1.875.8333 24.1667 8.3333 28.4375 1.25 4.375-7.0833 8.75-18.6458 8.75-18.6458s-4.8958-8.75-15.7292-8.75c-11.0417 0-21.6667 6.9792-28.8542 12.1875-7.0833 5.2083-16.0417 12.2917-39.7917 12.2917s-32.9167-7.0833-40-12.2917c-7.1875-5.2083-17.8125-12.1875-28.75-12.1875s-15.8333 8.75-15.8333 8.75 4.375 11.4583 8.75 18.75c4.2708 6.9792 26.5625-.5208 28.5417-1.4583l-2.8125-1.875s-10.8333 2.7083-15 2.7083-11.3542-1.875-11.0417-6.25c.2083-2.9167 5-3.9583 8.3333-4.2708 2.8125-.2083 6.4583.2083 23.8542 11.875 12.9222 8.859 28.2943 13.4488 43.9583 13.125z" fill="none" stroke="#000" stroke-width=".7"/><path d="m351.2708 359.7917s-10.8333 2.7083-14.8958 2.7083c-4.1667 0-11.3542-1.875-11.0417-6.25.2083-2.9167 5-3.9583 8.3333-4.2708 2.3958-.2083 5.5208 0 17.7083 7.8125h-.1042zm100.2084 0s10.9375 2.7083 15.1042 2.7083c4.0625 0 11.1458-1.875 10.8333-6.25-.2083-2.9167-5-3.9583-8.2292-4.2708-2.3958-.2083-5.625 0-17.7083 7.8125zm-86.875-9.6875c-1.0929-.7761-2.1695-1.5749-3.2292-2.3958-1.5625-1.1458-3.125-2.0833-4.6875-3.3333 0 0 2.1875-2.8125 3.3333-3.125 1.7708-.625 3.8542.3125 4.2708 3.9583.3125 2.9167.3125 4.8958.3125 4.8958z" fill="none" stroke="#000" stroke-width=".7"/><path d="m364.6042 350s0-1.9792-.3125-4.7917c-.4167-3.6458-2.5-4.5833-4.1667-4.0625-1.25.4167-3.4375 3.125-3.4375 3.125v.1042c-1.0066-.6817-2.0498-1.3076-3.125-1.875 1.9103-1.6825 4.1431-2.9584 6.5625-3.75 1.0417 0 15.1042 5.625 19.5833 9.4792 1.0417 1.0417 1.875 7.2917 1.25 9.375-5.8711-1.4591-11.4178-4.0028-16.3542-7.5m-6.7708 14.1666s-3.0208 3.125-3.125 8.6458c0 6.5625 4.6875 6.875 7.8125 6.7708 3.8542 0 6.875-2.1875 6.7708-9.2708 0 0-6.25-2.6042-11.4583-6.25z" fill="none" stroke="#000" stroke-width=".7"/><path d="m360.4375 365.7292s-2.3958 2.6042-2.8125 6.7708c-.2083 3.2292 1.875 5.1042 4.6875 4.8958 3.8542-.2083 5.3125-5.5208 3.5417-8.4375l-5.4167-3.125" fill="none" stroke="#000" stroke-width=".7"/><path d="m357.2083 378.8542c1.875 1.0417 4.0625 1.0417 5.4167.8333 3.75 0 6.7708-2.1875 6.6667-9.2708 0 0 4.6875 2.3958 12.2917 4.1667 0 0 1.25 1.5625 1.4583 4.6875.3125 2.5-1.4583 5.2083-3.4375 5l-17.1875-3.0208c-3.8542-.7292-5.2083-2.3958-5.2083-2.3958zm80.9375-28.75 3.4375-2.3958c1.3542-1.1458 2.9167-2.0833 4.5833-3.3333 0 0-2.2917-2.8125-3.4375-3.125-1.6667-.625-3.75.3125-4.1667 3.9583l-.4167 4.8958z" fill="none" stroke="#000" stroke-width=".7"/><path d="m438.1458 350 .4167-4.7917c.4167-3.6458 2.5-4.5833 4.1667-4.0625 1.0417.4167 3.3333 3.125 3.3333 3.125v.1042c1.0066-.6817 2.0498-1.3076 3.125-1.875-.7292-.9375-5.4167-3.75-6.4583-3.75s-15.1042 5.625-19.5833 9.4792c-1.0417 1.0417-1.875 7.2917-1.3542 9.375 5.8786-1.4377 11.4291-3.9832 16.3542-7.5m6.7708 14.1666s3.0208 3.125 3.125 8.6458c.2083 6.5625-4.6875 6.875-7.8125 6.7708-3.75 0-6.7708-2.1875-6.7708-9.2708 0 0 6.25-2.6042 11.4583-6.25z" fill="none" stroke="#000" stroke-width=".7"/><path d="m442.3125 365.7292s2.5 2.6042 2.9167 6.7708c.3125 3.2292-1.9792 5.1042-4.6875 4.8958-3.8542-.2083-5.3125-5.5208-3.5417-8.4375l5.3125-3.125" fill="none" stroke="#000" stroke-width=".7"/><path d="m445.6458 378.8542c-2.0833 1.0417-4.1667 1.0417-5.4167.8333-3.75 0-6.7708-2.1875-6.7708-9.2708 0 0-4.6875 2.3958-12.1875 4.1667 0 0-1.3542 1.5625-1.5625 4.6875-.2083 2.5 1.5625 5.2083 3.5417 5l17.1875-3.0208c3.75-.7292 5.2083-2.3958 5.2083-2.3958z" fill="none" stroke="#000" stroke-width=".7"/><path d="m380.75 376.4583s3.4375 2.5-.7292 5.5208m-9.375-7.0833 10.4167 4.4792m-8.6458-2.1875 7.5 3.2292m-4.7917-5.2084 5.625 2.6042m41.3542-1.3542s-3.4375 2.5.625 5.5208m9.375-7.0833-10.4167 4.4792m8.75-2.1875-7.5 3.2292m4.7917-5.2084-5.625 2.6042" fill="none" stroke="#fff" stroke-width=".7"/><path d="m340.5417 345.2083c.2083.2083.2083.4167.3125.7292.0447.276.0447.5574 0 .8333-.1543.711-.6107 1.3195-1.25 1.6667-.6817.429-1.5026.5783-2.2917.4167-.3657-.0873-.7166-.2277-1.0417-.4167-.374-.1601-.7244-.3703-1.0417-.625l-.3125.4167-.4167-.1042.4167-3.0208.5208.1042c0 .4167 0 .7292.2083 1.0417l.3125 1.0417.7292.625c.2083.2083.5208.3125.9375.4167h.7292c.394-.0477.7419-.2796.9375-.625.1058-.1944.1763-.406.2083-.625.071-.3498.0347-.7129-.1042-1.0417-.1701-.3064-.4227-.559-.7292-.7292-.2761-.1763-.5539-.3499-.8333-.5208l-.8333-.625c-.5208-.3125-.8333-.625-1.0417-1.0417s-.2083-.8333-.1042-1.4583c0-.3125.2083-.625.4167-.8333.3732-.5294.9302-.9008 1.5625-1.0417.3446-.0603.6971-.0603 1.0417 0l1.0417.4167.8333.625.3125-.4167.5208.1042-.5208 2.9167-.5208-.1042c.0155-.347.0155-.6946 0-1.0417-.1037-.294-.2437-.574-.4167-.8333-.1187-.278-.2964-.5268-.5208-.7292-.2428-.2-.5277-.3425-.8333-.4167-.3611-.064-.733.0104-1.0417.2083-.4167.2083-.625.5208-.625.8333v1.0417l.7292.7292.8333.5208c.4712.3207.9233.6685 1.3542 1.0417.2083 0 .4167.3125.5208.5208m12.5 1.6666-.5208-.1042c-.1658-.0663-.3423-.1016-.5208-.1042-.2083 0-.4167.1042-.5208.3125-.2434.3249-.4528.674-.625 1.0417l-1.875 3.2292c-.386.759-1.1319 1.2693-1.9792 1.3542h-1.1458c-.3689-.1264-.7192-.3016-1.0417-.5208-.3869-.2242-.738-.5051-1.0417-.8333-.3119-.2936-.5601-.6481-.7292-1.0417-.1146-.3345-.1503-.6911-.1042-1.0417.0108-.2892.0818-.573.2083-.8333l2.5-4.4792c.0665-.129.1022-.2716.1042-.4167v-.3125c-.0888-.1184-.194-.2237-.3125-.3125l-.4167-.3125.2083-.3125 3.2292 1.7708-.2083.3125-.3125-.1042c-.1349-.049-.2746-.0839-.4167-.1042h-.4167c-.0898.089-.1607.1953-.2083.3125l-2.2917 4.1667c-.132.2302-.2368.4749-.3125.7292-.0625.2742-.0625.5591 0 .8333 0 .2083 0 .5208.2083.7292l.9375.8333 1.0417.3125c.5718.0616 1.1421-.1285 1.5625-.5208l.5208-.625 1.6667-3.125.5208-1.0417v-.625c0-.2083-.2083-.3125-.4167-.5208-.1315-.1137-.2707-.2181-.4167-.3125l.2083-.4167 3.125 1.7708c-.0685.1048-.1379.209-.2083.3125m4.4795 7.8126c.3148.5853.3148 1.2897 0 1.875-.1918.3522-.4811.6415-.8333.8333-.3171.1862-.6744.2934-1.0417.3125l-1.0417-.1042c-.3285-.0997-.6433-.2397-.9375-.4167l-3.6458-2.0833.2083-.4167c.2684.1278.5472.2323.8333.3125.1017.032.2108.032.3125 0 .134-.0693.2432-.1785.3125-.3125l3.125-5.5208c.0511-.098.0862-.2035.1042-.3125.0156-.1468-.0213-.2944-.1042-.4167-.0907-.1168-.1957-.2218-.3125-.3125l-.3125-.2083.2083-.4167 3.5417 2.0833.7292.5208.625.7292c.2977.5157.2977 1.151 0 1.6667-.1555.2552-.3698.4695-.625.625l-.7292.3125c-.2419.0342-.4873.0342-.7292 0-.2854-.0343-.5653-.1043-.8333-.2083v.1042c.2257.1903.4347.3993.625.625l.5208.7291zm-.6251-1.875c.2083 0 .4167-.2083.5208-.3125.203-.182.3784-.3925.5208-.625.2083-.4167.3125-.8333.2083-1.25-.1042-.3125-.4167-.625-.9375-.9375l-.4167-.2083-.4167-.3125-1.6667 2.9167.625.4167.8333.3125h.7291zm-.625 2.8126c.2083-.4167.3125-.8333.1042-1.3542 0-.4167-.4167-.8333-1.0417-1.1458-.1721-.1408-.3457-.2797-.5208-.4167l-.4167-.1042-1.5625 2.6042c-.1565.2179-.1565.5113 0 .7292.1042.2083.4167.4167.7292.5208.5208.3125 1.0417.4167 1.4583.3125.5208-.2083.8333-.5208 1.25-1.0417v-.1042zm19.6875 4.4791c-.1734-.0124-.3475-.0124-.5208 0-.1982-.0801-.4115-.1157-.625-.1042-.1042 0-.3125.1042-.4167.4167-.2062.3299-.3806.6787-.5208 1.0417l-1.5625 3.4375c-.1042.4167-.4167.7292-.7292 1.0417-.3143.2101-.6692.352-1.0417.4167-.3791.0662-.7668.0662-1.1458 0-.8478-.121-1.6431-.4825-2.2917-1.0417-.2892-.2337-.5359-.5156-.7292-.8333-.1862-.3171-.2934-.6744-.3125-1.0417-.0045-.3245.0668-.6455.2083-.9375l2.0833-4.6875c.0312-.1371.0312-.2795 0-.4167-.0104-.1108-.0461-.2176-.1042-.3125-.0898-.1176-.1949-.2227-.3125-.3125l-.4167-.2083.2083-.4167 3.4375 1.4583-.2083.4167c-.1367-.0429-.2758-.0777-.4167-.1042-.1386-.0121-.278-.0121-.4167 0h-.3125c-.0878.0907-.1584.1966-.2083.3125l-1.9792 4.4792-.2083.7292c-.0868.524.0661 1.0593.4167 1.4583.2083.3125.5208.5208 1.0417.7292l1.0417.2083c.6049.0085 1.1805-.2601 1.5625-.7292.1684-.1871.3087-.3976.4167-.625l1.3542-3.2292.3125-1.0417v-.7292l-.4167-.4167c-.1651-.1177-.3393-.2222-.5208-.3125l.2083-.4167 3.2292 1.4583-.1041.3125zm9.5834 11.25-3.75-1.0417v-.4167c.2083.007.4167.007.625 0l.4167.1042c.1559-.0284.3004-.1007.4167-.2083.0956-.0842.1674-.1919.2083-.3125l1.7708-6.0417c-.0347-.0012-.0695-.0012-.1042 0l-5 6.25h-.3125l-.625-8.2292-1.5625 5-.2083 1.1458.1042.625.5208.4167c.1637.1198.3381.2244.5208.3125l-.2083.4167-3.3333-1.0417v-.4167h.625c.1708.0441.35.0441.5208 0 .2083 0 .3125-.2083.5208-.4167l.3125-1.0417 1.25-4.375c.072-.2004.1073-.4121.1042-.625-.0054-.1446-.0409-.2865-.1042-.4167-.1037-.1701-.2466-.313-.4167-.4167-.1634-.0926-.3386-.1627-.5208-.2083l.1042-.4167 2.9167.8333.625 6.9792 3.6458-4.6875.3125-.5208c.0805-.1331.1501-.2724.2083-.4167l2.8125.8333-.1042.4167c-.1734-.0111-.3474-.0111-.5208 0-.1356-.0466-.275-.0815-.4167-.1042-.1141-.0097-.2271.028-.3125.1042-.0633.1301-.0988.2721-.1042.4167l-1.7708 6.0417c-.0197.1032-.0197.2093 0 .3125l.1042.3125c.2582.175.5384.3151.8333.4167l-.1042.4167zm9.0625-2.7083c.5315.4256.8069 1.0944.7292 1.7708l-.4167 1.0417c-.2083.3125-.5208.4167-.8333.625s-.625.2083-1.0417.3125h-1.0417l-4.1667-.5208v-.4167h.5208c.1384.0164.2783.0164.4167 0 .1265-.0282.2378-.1025.3125-.2083.0758-.1253.1121-.2705.1042-.4167l.8333-6.25c.0157-.1036.0157-.2089 0-.3125-.0626-.1387-.1738-.2499-.3125-.3125-.1291-.0875-.2692-.1575-.4167-.2083h-.3125v-.5208l4.0625.5208c.3125 0 .625 0 .9375.2083l.7292.4167c.4753.3697.7142.967.625 1.5625l-.2083.8333c-.1651.2198-.3791.3981-.625.5208-.194.1307-.404.2357-.625.3125-.2683.103-.5481.173-.8333.2083l.8333.3125.7291.5208zm-1.3542-1.5625.4167-.5208.2083-.7292c.0507-.4082-.0616-.8199-.3125-1.1458-.2083-.3125-.625-.5208-1.1458-.5208-.3466-.0411-.6938-.0758-1.0417-.1042l-.4167 3.3333h.8333c.3125.1042.625 0 .8333 0 .2321-.0477.4476-.1554.625-.3125zm.5209 2.9166c0-.5208 0-1.0417-.3125-1.3542s-.8333-.5208-1.4583-.625l-.7292-.1042h-.4167l-.3125 3.0208c-.0549.231.0258.4731.2083.625l.8333.3125c.625 0 1.0417 0 1.5625-.4167.3125-.3125.5208-.7292.625-1.4583zm11.875 2.7084h-2.2917c-.4668-.7078-.953-1.4025-1.4583-2.0833l-1.3542-1.875h-1.0417v2.8125l.1042.4167.3125.2083h.4167l.5208.1042v.4167h-3.75v-.4167h.4167l.4167-.1042c.0881-.0479.1604-.1203.2083-.2083.0758-.1253.1121-.2705.1042-.4167v-6.6667l-.3125-.3125c-.1386-.0127-.2781-.0127-.4167 0l-.4167-.1042v-.4167h5.1042c.3347.0824.6521.2235.9375.4167l.625.625c.2547.599.2547 1.276 0 1.875-.088.2688-.2297.5169-.4167.7292-.2189.1774-.4652.3181-.7292.4167-.2689.1264-.5476.2309-.8333.3125l1.0417 1.4583c.3125.4167.7292.8333 1.0417 1.4583.269.3635.628.6507 1.0417.8333.2718.0721.5521.1071.8333.1042v.4167zm-3.2292-6.4584c0-.5208-.2083-1.0417-.4167-1.25-.3125-.3125-.8333-.5208-1.3542-.5208h-1.0417v3.75h.8333c.5208 0 1.0417-.1042 1.3542-.5208.4167-.3125.625-.8333.625-1.4583zm13.5417 5.8333-3.75.3125v-.4167l.7292-.2083c.2083 0 .3125-.2083.3125-.2083v-.2083c.0035-.0347.0035-.0695 0-.1042l-.9375-1.875-3.125.2083c-.0786.2403-.1481.4836-.2083.7292l-.1042.625c-.0431.1367-.0779.2758-.1042.4167v.3125c0 .2083.1042.3125.4167.3125l.9375.1042v.4167l-3.3333.3125v-.4167c.1421-.0203.2817-.0552.4167-.1042.3112-.1122.5706-.3346.7292-.625l.2083-.5208 1.1458-3.75 1.1458-3.75h.5208l3.5417 7.2917.2083.3125c.1877.2188.4453.366.7292.4167h.4167v.4167h.1042zm-3.8542-3.2291-1.6667-3.3333-1.0417 3.5417 2.7083-.2083zm16.3542-6.9792c-.1394.0683-.2783.1378-.4167.2083-.2138-.364-.4969-.6825-.8333-.9375-.4167-.2083-.7292-.4167-1.0417-.3125-.1041-.0025-.2083-.0025-.3125 0l-.625.2083-1.4583.4167.9375 3.3333 1.0417-.2083.625-.3125.3125-.4167.1042-.4167v-.625l.4167-.2083.9375 3.3333-.4167.1042c-.0864-.1837-.1911-.3582-.3125-.5208l-.4167-.4167c-.1483-.121-.33-.1937-.5208-.2083-.212.0069-.4222.0419-.625.1042l-1.0417.3125.8333 2.9167s0 .2083.2083.3125c.0803.0998.1894.1726.3125.2083h.4167l.4167-.1042.1042.4167-3.6458 1.0417-.1042-.4167c.1405-.0662.2794-.1356.4167-.2083l.4167-.2083c.1059-.0746.1802-.186.2083-.3125.0197-.1032.0197-.2093 0-.3125l-1.6667-6.1458c-.0518-.1149-.1222-.2205-.2083-.3125l-.3125-.2083c-.1386-.0116-.278-.0116-.4167 0-.1731-.0181-.3477-.0181-.5208 0l-.1042-.3125 6.6667-1.875.625 2.0833zm9.7916-.7292 1.0417 2.5-6.25 2.9167-.2083-.3125.4167-.3125c.1127-.0557.2178-.1257.3125-.2083.0676-.0902.1042-.1998.1042-.3125.0353-.1367.0353-.28 0-.4167l-2.8125-5.625c-.0499-.1159-.1205-.2218-.2083-.3125-.1328-.058-.2838-.058-.4167 0h-.4167c-.1385-.0139-.2781-.0139-.4167 0l-.2083-.3125 3.4375-1.6667.2083.4167c-.1442.0582-.2836.1279-.4167.2083-.114.0938-.2186.1985-.3125.3125-.1151.0652-.1925.1812-.2083.3125-.0023.1456.0336.2892.1042.4167l2.6042 5.2083c0 .3125.2083.5208.3125.625l.3125.2083h.4167l.7292-.3125.4167-.2083.4167-.3125.3125-.2083c.0998-.0803.1726-.1894.2083-.3125.1805-.6788.2508-1.3822.2083-2.0833l.3126-.2084zm4.6875-8.6458c.5722.1684 1.1039.4519 1.5625.8333l1.25 1.4583c.3139.5475.5257 1.1476.625 1.7708.1095.5502.1095 1.1165 0 1.6667-.1314.566-.3798 1.0982-.7292 1.5625-.3442.426-.7689.78-1.25 1.0417-1.0034.6005-2.213.7517-3.3333.4167-.5294-.1446-1.025-.3925-1.4583-.7292-.5035-.4044-.9274-.8989-1.25-1.4583-.3139-.5475-.5257-1.1476-.625-1.7708-.1178-.5844-.1178-1.1864 0-1.7708.3269-1.0813 1.0787-1.9835 2.0833-2.5.4729-.3125 1.0046-.5251 1.5625-.625.5226-.0669 1.0534-.0316 1.5625.1042zm2.3958 5.8333c.0058-.4598-.0647-.9174-.2083-1.3542-.1878-.5118-.4324-1.001-.7292-1.4583-.2945-.4896-.644-.9439-1.0417-1.3542-.3002-.3319-.6519-.6133-1.0417-.8333-.3283-.1433-.6835-.2143-1.0417-.2083-.5208 0-.8333.1042-1.25.3125-.4167.3125-.7292.625-.9375 1.0417-.1735.3225-.2798.6769-.3125 1.0417 0 .5208.1042.9375.3125 1.3542.3248 1.0025.8572 1.9254 1.5625 2.7083.3125.4167.7292.625 1.0417.8333.3822.2116.8132.3193 1.25.3125.3125 0 .7292 0 1.1458-.3125.764-.416 1.2425-1.2135 1.25-2.0833zm10.9375-5.9375-1.9792 1.3542-2.3958-.9375-2.0833-.625-.8333.5208 1.6667 2.1875.2083.3125h.4167c.107-.0255.2116-.0603.3125-.1042l.4167-.3125.3125.4167-3.125 2.0833-.2083-.3125c.2161-.1641.4247-.3379.625-.5208.058-.1328.058-.2838 0-.4167.0226-.1029.0226-.2096 0-.3125l-3.75-5.2083c-.0592-.079-.1294-.1491-.2083-.2083-.1186-.1061-.298-.1061-.4167 0-.2554.0728-.5004.1778-.7292.3125l-.3125-.4167 3.3333-2.2917c.292-.2082.6065-.3828.9375-.5208.2982-.1227.6154-.1932.9375-.2083l.8333.1042c.5704.3029.9864.8325 1.1458 1.4583v.8333c-.0335.2519-.1037.4976-.2083.7292-.1464.2939-.3208.5729-.5208.8333l1.6667.5208 1.6667.5208c.402.1361.8311.1718 1.25.1042h.4167c.1486-.0905.2881-.1952.4167-.3125l.2083.4167zm-6.4583-3.4375c-.3125-.4167-.625-.625-1.0417-.7292s-.9375 0-1.3542.3125l-.8333.625 2.0833 3.125.7292-.5208c.4167-.3125.7292-.7292.8333-1.25 0-.5208 0-1.0417-.4167-1.5625zm13.75-2.0833.7292 2.5-6.875 2.5-.2083-.4167c.2915-.1095.5708-.2492.8333-.4167.0998-.0803.1726-.1894.2083-.3125.0405-.1359.0405-.2807 0-.4167l-2.2917-5.8333c-.0179-.109-.0531-.2145-.1042-.3125l-.4167-.1042h-.4167c-.1731-.0198-.3478-.0198-.5208 0l-.1042-.3125 6.3542-2.3958.7292 1.9792-.4167.1042c-.2267-.2959-.51-.5438-.8333-.7292l-.9375-.3125c-.1424.0622-.2815.1317-.4167.2083l-.625.2083-1.25.4167 1.1458 3.2292 1.0417-.3125c.2083 0 .4167-.2083.5208-.3125.1414-.1066.2498-.251.3125-.4167v-1.1458l.4167-.1042 1.1458 3.125-.4167.2083c-.0881-.1828-.1927-.3571-.3125-.5208-.1204-.1267-.2613-.2324-.4167-.3125-.1483-.121-.33-.1937-.5208-.2083-.2083 0-.4167 0-.625.2083l-.9375.3125.9375 2.5.2083.5208c.0526.1454.1671.2599.3125.3125h.5208l.7292-.3125.5208-.2083c.3648-.0901.7154-.2303 1.0417-.4167l.2083-.3125.2083-1.0417v-1.0417l.5208-.1043zm7.3958-6.0417c.4167.3125.8333.7292 1.0417 1.3542.3125.5208.5208 1.0417.625 1.7708.1158.6196.1158 1.2554 0 1.875-.1656.5733-.4494 1.1056-.8333 1.5625-.6627.9249-1.683 1.5295-2.8125 1.6667-1.1269.1379-2.2601-.2021-3.125-.9375-.4241-.3461-.7778-.7704-1.0417-1.25-.3161-.5466-.528-1.147-.625-1.7708-.1265-.6536-.1265-1.3255 0-1.9792l.8333-1.5625c.6905-.8764 1.7036-1.4392 2.8125-1.5625.5499-.1122 1.1168-.1122 1.6667 0l1.4583.8334zm-.1041 6.25c.2083-.4167.3125-.8333.3125-1.3542v-1.5625c-.0805-.5347-.2203-1.0587-.4167-1.5625-.1663-.457-.4133-.8803-.7292-1.25-.2494-.3148-.571-.565-.9375-.7292-.3678-.1273-.7611-.163-1.1458-.1042-.5208 0-1.0417.2083-1.25.5208-.3125.2083-.625.625-.7292 1.0417-.1684.3979-.2738.8197-.3125 1.25-.0907 1.0596.0516 2.1262.4167 3.125l.7292 1.1458c.2083.4167.5208.625.9375.7292.3125.2083.7292.2083 1.25.2083.3848-.0853.7426-.2642 1.0417-.5208.367-.2653.655-.6254.8333-1.0417v.1041z" stroke="#000" stroke-width=".7"/><path d="m449.9167 213.6458v55.2083c0 11.0417-1.4583 54.7917-48.4375 71.875-47.1875-17.0833-48.6458-60.8333-48.6458-71.875v-55.2083z" fill="none" stroke="#000"/></svg>