<svg viewBox="0 0 101 84" xmlns="http://www.w3.org/2000/svg"><path d="m98.8422 1.7861h-96.6156v60.0669h96.6156z" fill="#fff"/><path d="m99.3305 61.915h.314v10.4874h-97.7461v-10.4874z" fill="#70bb44"/><path d="m99.6503 73.6268h-97.746c-.6908 0-1.2246-.5338-1.2246-1.2246v-71.1508c0-.6908.5338-1.2245 1.2246-1.2245h97.7774c.6903 0 1.2243.5338 1.2243 1.2246v71.1508c-.031.6594-.565 1.2246-1.2557 1.2246zm-96.5215-2.4491h95.2969v-68.7017h-95.2969z"/><path d="m99.3054 60.6899h-97.0866v2.4492h97.0866z"/><path d="m43.4179 72.4014h-2.4491v9.4826h2.4491z"/><path d="m61.3085 72.4014h-2.4491v9.4826h2.4491z"/><path d="m70.8277 81.2256h-39.3433v2.4491h39.3433z"/><g fill="none" stroke="#70bb44" stroke-linejoin="round" stroke-width="2.5"><path d="m31.4027 45.8819 4.1566 4.1566 4.1567-4.1566" stroke-linecap="round"/><path d="m59.9053 17.3793 4.1566-4.1566 4.1566 4.1566" stroke-linecap="round"/><path d="m49.8106 31.6621v11.2508c0 3.9339 3.1917 7.1256 7.1256 7.1256s7.1256-3.1917 7.1256-7.1256v-29.6902"/><path d="m35.5593 50.0385v-29.6902c0-3.9339 3.1917-7.1256 7.1256-7.1256s7.1256 3.1917 7.1256 7.1256v11.3138"/></g></svg>