<svg enable-background="new 0 0 158.2 137" viewBox="0 0 158.2 137" xmlns="http://www.w3.org/2000/svg"><path clip-rule="evenodd" d="m110.7 108.1c17.5 6.5 17.5 17 0 23.5-17.4 6.5-45.7 6.5-63.2 0s-17.5-17 0-23.5c17.4-6.5 45.7-6.5 63.2 0z" fill="#11c1b0" fill-rule="evenodd" opacity=".24"/><path d="m81.2 9.2h33.4v70.4h-33.4z" fill="#add582"/><path d="m90.2 12.7c0 3.1-2.5 5.5-5.5 5.5-.5 0-1-.1-1.4-.2v52.7c.5-.1.9-.2 1.4-.2 3.1 0 5.5 2.5 5.5 5.5 0 .5-.1 1-.2 1.4h15.7c-.1-.5-.2-.9-.2-1.4 0-3.1 2.5-5.5 5.5-5.5.5 0 1 .1 1.4.2v-52.7c-.5.1-.9.2-1.4.2-3.1 0-5.5-2.5-5.5-5.5 0-.5.1-1 .2-1.4h-15.7c.1.4.2.9.2 1.4zm18.7 31.7c0 6.1-4.9 11-11 11s-11-4.9-11-11 4.9-11 11-11c6 0 11 4.9 11 11z" fill="none"/><path d="m84.7 7.2h-5.5v5.5 63.4 5.5h5.5 26.4 5.5v-74.4zm20.9 5.5c0 3.1 2.5 5.5 5.5 5.5.5 0 1-.1 1.4-.2v52.7c-.5-.1-.9-.2-1.4-.2-3.1 0-5.5 2.5-5.5 5.5 0 .5.1 1 .2 1.4h-15.8c.1-.5.2-.9.2-1.4 0-3.1-2.5-5.5-5.5-5.5-.5 0-1 .1-1.4.2v-52.7c.5.1.9.2 1.4.2 3.1 0 5.5-2.5 5.5-5.5 0-.5-.1-1-.2-1.4h15.7c-.1.4-.1.9-.1 1.4z" fill="#638e2b"/><ellipse cx="97.9" cy="44.4" fill="#638e2b" rx="11" ry="11" transform="matrix(.7933 -.6088 .6088 .7933 -6.7878 68.7673)"/><path d="m43.7 9.2h33.4v70.4h-33.4z" fill="#add582"/><path d="m52.7 12.7c0 3.1-2.5 5.5-5.5 5.5-.5 0-1-.1-1.4-.2v52.7c.5-.1.9-.2 1.4-.2 3.1 0 5.5 2.5 5.5 5.5 0 .5-.1 1-.2 1.4h15.7c-.1-.5-.2-.9-.2-1.4 0-3.1 2.5-5.5 5.5-5.5.5 0 1 .1 1.4.2v-52.7c-.5.1-.9.2-1.4.2-3.1 0-5.5-2.5-5.5-5.5 0-.5.1-1 .2-1.4h-15.7c.2.4.2.9.2 1.4zm18.7 31.7c0 6.1-4.9 11-11 11s-11-4.9-11-11 4.9-11 11-11 11 4.9 11 11z" fill="none"/><path d="m47.2 7.2h-5.5v5.5 63.4 5.5h5.5 26.4 5.5v-74.4zm20.9 5.5c0 3.1 2.5 5.5 5.5 5.5.5 0 1-.1 1.4-.2v52.7c-.5-.1-.9-.2-1.4-.2-3.1 0-5.5 2.5-5.5 5.5 0 .5.1 1 .2 1.4h-15.8c.1-.5.2-.9.2-1.4 0-3.1-2.5-5.5-5.5-5.5-.5 0-1 .1-1.4.2v-52.7c.5.1.9.2 1.4.2 3.1 0 5.5-2.5 5.5-5.5 0-.5-.1-1-.2-1.4h15.7c0 .4-.1.9-.1 1.4z" fill="#638e2b"/><ellipse cx="60.4" cy="44.4" fill="#638e2b" rx="11" ry="11" transform="matrix(.4834 -.8754 .8754 .4834 -7.6408 75.8143)"/><path d="m62.5 2.3h33.4v70.4h-33.4z" fill="#add582"/><path d="m71.5 5.8c0 3.1-2.5 5.5-5.5 5.5-.5 0-1-.1-1.4-.2v52.7c.5-.1.9-.2 1.4-.2 3.1 0 5.5 2.5 5.5 5.5 0 .5-.1 1-.2 1.4h15.7c-.1-.5-.2-.9-.2-1.4 0-3.1 2.5-5.5 5.5-5.5.5 0 1 .1 1.4.2v-52.7c-.5.1-.9.2-1.4.2-3.1 0-5.5-2.5-5.5-5.5 0-.5.1-1 .2-1.4h-15.7c.1.4.2.9.2 1.4zm18.6 31.7c0 6.1-4.9 11-11 11s-11-4.9-11-11 4.9-11 11-11 11 4.9 11 11z" fill="none"/><path d="m65.9.3h-5.5v5.5 63.4 5.5h5.5 26.4 5.5v-74.4zm20.9 5.5c0 3.1 2.5 5.5 5.5 5.5.5 0 1-.1 1.4-.2v52.7c-.5-.1-.9-.2-1.4-.2-3.1 0-5.5 2.5-5.5 5.5 0 .5.1 1 .2 1.4h-15.7c.1-.5.2-.9.2-1.4 0-3.1-2.5-5.5-5.5-5.5-.5 0-1 .1-1.4.2v-52.7c.5.1.9.2 1.4.2 3.1 0 5.5-2.5 5.5-5.5 0-.5-.1-1-.2-1.4h15.7c-.1.4-.2.9-.2 1.4z" fill="#70bc44"/><ellipse cx="79.1" cy="37.5" fill="#70bc44" rx="11" ry="11" transform="matrix(.5295 -.8483 .8483 .5295 5.4394 84.7847)"/><path d="m133.3 116.1c0 2.1-1.7 3.8-3.8 3.8h-100.8c-2.1 0-3.8-1.7-3.8-3.8v-60.2c0-2.1 1.7-3.8 3.8-3.8h100.9c2.1 0 3.8 1.7 3.8 3.8v60.2z" fill="#341189"/><path d="m71.9 70.8c.8-.1.4.3 1 .1s.3.2.8-.2.9-.2.7-.6-.1-.5-.7-.4c-.6 0-.6-.2-1 0s-.4.2-.6.4-.6 0-.4.4c.2.3 0 .3.2.3z" fill="#4425a5"/><path d="m113.7 106.7c.5.5.7.7.4 1.8-.4 1.1.1.8.7 1.6.6.9-.2.4-.5.9-.4.5-.8.6-1 1.4-.2.7.6 0 1.6-.1 1-.2 1.7-.7 2.2-1 .2-.1 1.6-1.3 2.9-2.7 1.2-1.4 2.4-3 3-3.8.3-.4.5-.9.5-1.1-.4-.9-.6-.9 0-2.2s.1-1.8-.3-2.3c-.5-.5-1.3 2.2-1.9 2.9s-.8-.6-1.6-1.5c-.8-.8.7-.6 1-1.6.4-.9-1.1-.1-2 0-.9.2-.5.8-1.2 1.1-.8.3 0-.5-.9-.7s-.8.4-1.8.5c-1 0-1 .6-1.6 1.4s-.5.3-2.3.2-1.2.8-2 2.2c-.9 1.4-.2 1.1-1.1 2s-1 .6-.9 1.4 1.3-.2 2.4.3c1.1.4 1.5-.3 3.1-.8-.1 0 1-.2 1.3.1z" fill="#4425a5"/><path d="m125.7 79.3c-.8-.8-1.5-.7-1.2 0s1 1 .9 1.7-.4 2.1-1 1.9c-.6-.1-.5 1.4-1.2.6s.3-1-.7-1.1c-1.1-.1-2.2.3-1-.5s1.2.1 1.7-.9.9-.7.7-1.5.3-.7.4-1.7c0-1 .7-1.4-.5-1.5s-.4.2-1.9-.4c-1.6-.6-2.2.5-1.9-.6s-.1-1 .8-1.6.9-.9 1.5-1 .7-.8 1 .1 1.4.6 1.1 1.2c-.4.6-.3.6.2.8s1 .8 1 .8c.5 1.2.3 1.2 1 1.5s1.6-1.3.9-1.9-1.1-.8-1.2-1.5-.6-1-.2-2c.1-.2.1-.5.1-.5s-.4-1.1-1.1-2.3c-.8-1.4-1.8-2.9-2-3-.5-.2-1.2-.3-2.2-.2-1.5.1-.2.4-2-.4s-1.2-1.2-2.4-.2c-1.3 1-1.4 1.6-2.2.7s-.8-.1-1.9-.7-2-.6-2.2-1.1-5.4-4.4-4.9-3 .4.9 1.7 1.7 2.3.7 2 1.5c-.4.7-.4 1.7-1.2 1-.9-.7 0-1.1-1-1.2-1.1-.1-1.4-.8-1.8.1-.4.8-.5.3-1.4.2-1-.2-1.5-.1-1.3-.5s1-1.4.2-1.4c-.7.1-1.2.2-1.1-.3s-.6-.5-1.3-.5-.4-.3-.5-.6c-.1-.4-.4-.5-.8-.3s.3-.5-.2-.7-1.6.1-2.1-.2.2-.7-.4-.8-1 .3-1-.4.4-.8-.6-.8-1.6.3-1.2.6c.5.4.5.6.7.9.3.2-.2.4.7.7.8.3 2 .4 2.4.7s-.2.4.4.6 1.2.1.9.5-1 .3-.8.7-.2.4-.6.9-.1 1-.4 1.4c-.2.4-1.8.8-2 1.4s-.9 1-.9 1.6c0 .7.1 1.1-.5 1.1s-3.1-.4-3.3.1-.9 1.1-1.4.8-.1-.8-.9-.8-2.1 0-2.5-.6c-.5-.6-2.1-.5-2.8 1s-1 2.4-2.2 3-1.8.7-1.4 1.7c.5 1 1.2 1.3 1.1 2.3 0 1-.5 1.7-1.3 1.2s-.3-1.6-.9-1.8-1-.3-1.2-.7-.7-.1-.5.8c.1.9-2.4.1-2.4 1.2s2.1.4 2.7 1.3c.3.5.8 1.1.8 1.6.3 0 .9-.2 1.1-.1.4.1.4-.1.5-.4.1-.2.3-.2 1-.5.6-.2.3.3.9.2s.4.2.8.6 1.7-.3 1.9.3.2.4.4.5.3-.3.1-.8 0-.6-.3-1c-.2-.3.4-.2.5.1s.2.4.5 1-.1.2 0 .7c.1.4 0 .3-.1.6s.2.3.5.2 0-.3.7-.6c.6-.3.2.3.3.6 0 .3.1.2.1.6 0 .3.6.2.9.5s.3 0 1 0c.6 0 .4.4-.2.5s-.3.5-.7 1-.9-.3-1.9-.7c-.9-.5-.4-.5-1.2-.7s-.2.3-.6.5-1.9.4-2.2-.1c-.2-.5-.8-.6-.9-1s.5-.3.6-.7-.7.1-1.5-.4-1.4-.2-2.2-.3c-.1.2-.3.3-.6.4-1.3.5-3.8 0-3.2 1.9s2.1.9 1.7 1.9c-.4.9-.6-.3-1.1 1-.5 1.4-1 .2-1.5 1.2-.6.9-.8 1.9-.3 2.9s-1.4-.6-1 .7c.3 1.2.7 2.1 1.5 2.3.7.3.7.8 1.4 1.1s-1 .8 1.2.8c2.2-.1 3.4 0 4.2 0s.1.6 1 .9 1.4.5 1.3 1.5-.9 4.4-.1 5.1 1.3.9 1.2 2.2c-.1 1.4.4 1.1.5 1.7s.2 1.7 1.3 1.7c1.2 0 1.8-.2 1.8-.9s.9-.1 1.4-.3-.1-.8.4-1.4 1.5-.6 1.4-1.1c0-.5 1.3-.7.9-1.5s1.7-1.6 1.7-2.6c0 0 .7-2 .5-2.7s-.2-.1.8-.2 0-.6.7-1 1.2-.3 1.2-1.1-.2-.9.9-1.2c1-.3.4-.8 1.3-1s.4-1 .4-1.6c0-.1 0-.1 0-.1-.3-.2.6-1.1-.2-.8-.9.3-1.3.6-2.3.1s-1.2-.4-1.7-1.6c-.5-1.1-1.1-.9-1.6-2.1-.5-1.1-.5-.8-.8-2.5-.1-.6 1.2.4 1.3 1.4s.2.7 1.3 1.3c1 .5.6.8.6 1.6s.6 1.1 2.2 1.2c1.6 0 1.7-.8 2.9-1.1.1-.1.2-.2.4-.3.9-.3 1.4-.8 2.1.2.7.9 2.1 1.4 2.4 2.4.3.9-.5 1.7.6 2.2s.2 1.9 1.5 1.4 1.6-1.4.7-1.9-1.9-1.1-.8-1.3c1-.2 1.8.4 2.3-.9.5-1.2 1.9-1.9 2.4-.9s1.9.9 1.8 1.6 1.4 1.5.4 1.8-2.6.4-1.7 1.5 2.2 2.9 3.9 3.4 2.3.8 3.6.4 2.7.1 2.3-.5-.7-.4-2-.4-2.4-.1-1.2-.7c1.1-.6.1-1 1.4-1.6s1.8-.1 1 .7.4 1 1 .8c.5-.2 1.1-.6.5-1-.5-.4-.2-.1 0-.7s-.1-.3-1-.6.8-1.3-.7-1.3c-1.5-.1-1.4-.6-2.6.5-1.2 1.2-1.7 2-1.8 1.1s-1.9-.5-1.7-1.3c.3-.8-.4-1 1.2-.9 1.7 0 3.1.6 2.5-.2-.5-.8-2.1-.1-1.4-1.1.7-1.1-.4-1.2.6-1.4s.1-.6 1.2-.8-.3-.8 1.7-.5 2.7.8 2.3 0c-.3-.8-1.5-.4-1.4-1.3s.8-1.4.1-1.8-1.9-.9-.8-1.4.6-.2 2.1.7c1.5.8 1.7 1.6 2.2 1.1.6-.5 0-1.3.9-1.5.8-.2 2.3.4 2.2-.3 0-.8-1-1.7-.7-2.2.3-.4.8 0 1.1-1-.2-1.2-1.6-.6-2.5-1.4zm-33.2-.2c0 .4-.2.2-1.2.2s-1 .1-1.3-.2c-.4-.3-.5-.2-.9.2s-.8 0-1.6-.2c-.7-.2-.2-.3.3-.9.4-.6 0-.5.6-.9.7-.4.4.1.7.5.1.1.3.2.5 0 .3-.2 0-.4.3-.6s.4-.2.9-.3c.6 0 .1.2-.1.5s-.2.1-.2.3.4 0 .4.3.3.4 1.3.5c.9.1.2.2.3.6zm4 1.9c-.6.3-.4-.3-.9-.3-.6 0-.4-.1-.5-.5-.2-.4 0-.4-.3-.9s-.6-.2-.6-.8-.5-.4-.6-.8c-.1-.5.7-.2 1-.7.3-.4.6-.2 1.1.2s.2.3-.4.6c0 0 0 0-.2.2s-.1.2.3.6.3.1.5.5 0 .2.6.9.2.2.5.7c.4.3.1-.1-.5.3z" fill="#4425a5"/><path d="m76 56.8c-1.1 0-1.2.1-1.6-.9-.5-1.1-1.9-2.1-2.9-1.2s.2 1.2-1 1.3-1-.1-.9-.6-.5-1.1-2-.7-3.4.1-4.2.5-2.3 2.7-2.3 3.4-.4 1.4-.7 1.2.7-1.9-.2-1.4-.7 1.2-1.7 1.2-3.6.4-4.1 1.2-1.4-.3-1.2.3c.3.7-.4 1.5 1.3 1.5s.7.7-.2 1.2-1 .7-.4.9c.5.3.6 1 .1 1.2s.2.8-.3 1.1-1 1-1.2.7c-.2-.2-.3-1.4.2-1.7.5-.2.4-1 .2-1.2s-1-.8-.5-1 .6-1.8-.2-1.4-1.6.4-1.6.9-1.7.3-1.4.8c.2.5-.5.8-.3 1.4s.4 1.1-.1 1-.3-.6-1-.6-.4-.4-.9-.4-.7.8-1.1.8c-.5 0-.2-.6-.7-.6s-2.7.4-2.1-.2.3-2.1-.6-2c-.5.1-4.3.2-4.3.2s-1.7 1.8-3 4c-1.4 2.2-2.4 4.9-2.7 5.8-.1.4.1.5.3.5.1 0 .2-.1.3 0 .5.8 2.5-4.5 3.4-4.7 1-.2 2.1.9 2.2 1.6s-.9 2.8-.8 3.5c0 .7-2.5 2.1-2.4 2.6s-1.6.3-1 1.2c.6.8 2.1.5 1 .8-1 .4-2.1.1-1.8 1.2s1 1.3 0 1.8c-1.1.6-.1 1.5.3 2.4s1.4.3 1.8.9c.4.7-.7.9.2 1.4s.5 1.2 1.6 1.2 1.2.5 1.7 1.2c0 0 1.7 1.6 4.1 1.7s2.9.1 3.5 1c.2.3 1.3.7 1.5.9.1.3.3.6.5 1 .5.7.8 1.1-.2 1.2s-1.3 1.5-1.1 2.3 1 2.9 2 4.1 1.5 3.1 1.2 3.8c-.4.7.4 2.4-.2 2.5s-1.3.2-1 1c.2.8 1.2 1.3 1.2 2 .1.7 0 1.5.3 2.4s.5 1.6.7 2.4c.2.9.4 1.8.6 1.9 1.9 1.1 1.1 1.5 2.1.5 1-.9-2.6-3.4-1.4-5.4 1.1-2 .7-1.4 3.1-2.7 2.3-1.3 2.3-1.2 2-2.3-.2-.6.1-.5.4-.7.2-.2.2-.6 1.1-.5 1.9.1 2.8-.9 2.2-1.4s-.4-.8.3-1 1.9-.9 1.2-1.9c-.7-.9-.7-2-1.8-1.8-1.1.1-2.8-.9-2.7-1.5 0-.7.5-2.7-2.3-3.3-2.8-.7-.3-1-1.7-1.4s-1.1-1.6-3.3-1.4c0 0-.7.5-1.8.2-.3-.1-.4-.3-.3-.5-.1-.5-.8-1-1.6-1.4-1.1-.5-2.9-.6-2.1-1.2s2.3-1.1 1-1.2c-1.4-.1-2.5.9-2.9.5s-2.1-1-.9-1.4 1.2-1.3 1.9-.7c.8.6 1.3-2.4 2.2-1.4s.5.3 1 1.7-.2 2.3 1.6 2.2c1.9-.1.2-1 0-1.7-.2-.6-1.3-1.8-.9-2.4s.2-.2.8-.9-.6-.7.3-.7c.9-.1 1.2.3 1.3-.1 0-.5-.7-1.5.7-1.5s1.6-.4 1.8-.9c.1-.5 1.1-.3 1.9-.3.7 0 1.5-.7 2.9-.6 1.5.1 1.3-1.6.5-1.6s-.4-.9.3-.9c.6 0 1.6.1.9-.6-.8-.7-.4-2.5-1.2-2.5s-.1-.9 0-1.4c.2-.5-.2-.4-.7-.6-.4-.3-.9-.5.1-.7s1.8 0 1.4-1c-.2-.6-.4-.9-.4-1 0 0 0 0-.1 0-.5-.2-.3.3-.6.8-.4.5-.2.1-.9-.1s-.4-.6-.6-1.2-.7-.2-1.2-.2-.2.5-.6.8c-.5.2-.4.5-.1.8s-.3.3-.4.8-.6.2-1 .3-.4.8-.7 1.4c-.1.2-.1.4-.1.4 0-.1-.1-.2-.2-.4s-.4-.2-.2-.6-.3-.6-.4-1.3c-.1-.6-.7-.2-1.3-.3s-.4-.2-.1-.7c.4-.5-.3-.1-.2-.7s.8-.2.8-.5c-.1-.3.4-.4 1.5-.5s.7.1 1.2-.3.4.1.9.3.6 0 1-.3c.4-.2-.7-1-.3-.8s.6.1 1.1-.2 1 0 1.2.2-.3.3-1.2.4c-.9.2-.1.2.2.4s.4-.1.9.2c.5.4.1.2.9.4.7.1.3.1 1.1.5.1 0 .1.1.2.1.8 0 1.5-.7.7-1.2s-1.4.2-.7-.7 2-1 1.1-1.6-1.8-.3-1.2-.9-.7-2 .5-1.9c1.2.2.8 0 1.1-1s2.3-3.7 2.5-2.9-.2.6-.4 1.4.1.8 1.1 1.1 1.3-.6.7 1.1-2.1 3.9-1.5 4.4.7 1.8.5 2.5-.5 1.9 1 1.4c1.4-.5 1.1-2.1 2.3-2.6s.8-1.1 2.4-1c1.6.2 1.5.2 2.3-.7.8-1 1.4-1.3 1.3-2.1 0-.6 1.1-.2 1.1-2.2 0-.9.7-1.5.5-2.7-.5-1-.4-.9.6-1.5.9-.6 1-1.7 0-1.7z" fill="#4425a5"/><path d="m91.5 67.6c-.6-.5-1.5-.5-.9-.9s0-.6.7-.7c.8-.1.8-.1 1.2-.5s1-.1.4-.4c-.5-.3-.4-.6-1-.3-.7.3-.8-.3-1.5.5s-.8.8-.7 1.2-.8.2-.2.7c.6.6.1.5 1.1.5 1.1 0 .9-.1.9-.1z" fill="#4425a5"/><path d="m90.7 105.7s-.1-1.3.6-2.1c.8-.8.8-.8.8-1.3s.7-.7 1-.5c.2.1.9.7.2 1s-.7.2-.8 1c0 .7 0 .7-.5 1s-.1.6-.2 1c0 .3-1.1.2-1.1-.1z" fill="#4425a5"/><path d="m58.5 82.4c0 1.2-.9 2.1-2.1 2.1h-17.9c-1.2 0-2.1-.9-2.1-2.1v-12.2c0-1.2.9-2.1 2.1-2.1h17.9c1.2 0 2.1.9 2.1 2.1z" fill="#cecece"/><path d="m42.6 68.1h.8v16.4h-.8z" fill="#e8e8e8"/><path d="m52 68.1h.8v16.4h-.8z" fill="#e8e8e8"/><path d="m36.4 72.8h22.1v.8h-22.1z" fill="#e8e8e8"/><path d="m36.4 78.8h22.1v.8h-22.1z" fill="#e8e8e8"/><g fill="#fff"><path d="m36.2 106.7h-1.1v-3-.5-.5c-.2.2-.3.3-.4.4l-.6.5-.5-.6 1.6-1.3h.9v5z"/><path d="m41.2 106.7h-3.6v-.7l1.3-1.3c.4-.4.6-.7.7-.8s.2-.3.3-.4.1-.3.1-.4c0-.2-.1-.4-.2-.5s-.3-.1-.5-.1-.4 0-.6.1-.4.2-.6.4l-.6-.7c.3-.2.5-.4.6-.5.2-.1.3-.2.5-.2s.4-.1.7-.1.6.1.8.2.4.3.6.5c.1.2.2.4.2.7 0 .2 0 .5-.1.7s-.2.4-.4.6-.5.5-.9.9l-.7.6h2.2v1z"/><path d="m45.1 102.8c0 .3-.1.6-.3.8s-.5.4-.8.5c.4.1.7.2.9.4s.3.5.3.8c0 .5-.2.9-.5 1.1-.4.3-.9.4-1.5.4s-1-.1-1.5-.3v-.9c.2.1.4.2.7.2.2.1.5.1.7.1.4 0 .6-.1.8-.2s.3-.3.3-.6c0-.2-.1-.4-.3-.5s-.5-.1-.9-.1h-.4v-.8h.4c.4 0 .7-.1.9-.2s.3-.3.3-.5c0-.4-.2-.6-.7-.6-.2 0-.3 0-.5.1s-.4.2-.6.3l-.5-.7c.5-.3 1-.5 1.7-.5.5 0 .9.1 1.3.3 0 .2.2.5.2.9z"/><path d="m49.5 105.7h-.6v1.1h-1.1v-1.1h-2.2v-.7l2.2-3.3h1v3.2h.6v.8zm-1.7-.9v-.8c0-.1 0-.4 0-.6 0-.3 0-.4 0-.5-.1.2-.2.4-.3.6l-.9 1.4h1.2z"/><path d="m60.8 103.5c.5 0 .9.1 1.2.4s.4.7.4 1.1c0 .6-.2 1-.5 1.3-.4.3-.9.5-1.5.5s-1-.1-1.4-.3v-.9c.2.1.4.2.6.2.2.1.5.1.7.1.7 0 1-.3 1-.8s-.3-.8-1-.8c-.1 0-.3 0-.4 0s-.3.1-.4.1l-.4-.2.2-2.6h2.8v.9h-1.8l-.1 1h.1z"/><path d="m63 104.5c0-1 .2-1.8.6-2.3s1.1-.7 1.9-.7c.3 0 .5 0 .7.1v.9c-.2 0-.4-.1-.6-.1-.4 0-.7.1-.9.2s-.4.3-.5.5-.2.5-.2.9c.2-.4.6-.6 1.1-.6s.8.1 1.1.4.4.7.4 1.2-.2 1-.5 1.3-.7.5-1.3.5c-.4 0-.7-.1-1-.3s-.5-.4-.6-.8c-.1-.3-.2-.7-.2-1.2zm1.9 1.4c.2 0 .4-.1.5-.2.1-.2.2-.4.2-.7 0-.2-.1-.4-.2-.6-.1-.1-.3-.2-.5-.2s-.4.1-.6.2-.2.3-.2.5c0 .3.1.5.2.7.2.2.3.3.6.3z"/><path d="m67.6 106.7 1.9-4.2h-2.5v-.9h3.7v.7l-1.9 4.4z"/><path d="m73 101.5c.5 0 .9.1 1.2.3s.4.5.4.9c0 .3-.1.5-.2.7s-.4.4-.7.5c.4.2.7.4.8.6.2.2.2.5.2.7 0 .4-.2.8-.5 1-.3.3-.8.4-1.3.4-.6 0-1-.1-1.3-.4-.3-.2-.5-.6-.5-1 0-.3.1-.5.2-.8.2-.2.4-.4.7-.6-.3-.2-.5-.4-.6-.6s-.2-.4-.2-.7c0-.4.2-.7.5-.9.4.1.8-.1 1.3-.1zm-.8 3.9c0 .2.1.4.2.5s.3.2.6.2.5-.1.6-.2.2-.3.2-.5-.1-.3-.2-.4-.3-.3-.6-.4c-.6.1-.8.4-.8.8zm.8-3.1c-.2 0-.3 0-.4.1s-.2.2-.2.4c0 .1 0 .3.1.4s.3.2.5.3c.2-.1.4-.2.5-.3s.1-.2.1-.4-.1-.3-.2-.4c-.1 0-.3-.1-.4-.1z"/><path d="m86.4 106.7h-1.1v-3-.5-.5c-.2.2-.3.3-.4.4l-.6.5-.5-.6 1.6-1.3h.9v5z"/><path d="m91.4 106.7h-3.6v-.7l1.3-1.3c.4-.4.6-.7.7-.8s.2-.3.3-.4.1-.3.1-.4c0-.2-.1-.4-.2-.5s-.3-.1-.5-.1-.4 0-.6.1-.4.2-.6.4l-.6-.7c.3-.2.5-.4.6-.5.2-.1.3-.2.5-.2s.4-.1.7-.1.6.1.8.2.4.3.6.5c.1.2.2.4.2.7 0 .2 0 .5-.1.7s-.2.4-.4.6-.5.5-.9.9l-.7.6h2.2v1z"/><path d="m95.3 102.8c0 .3-.1.6-.3.8s-.5.4-.8.5c.4.1.7.2.9.4s.3.5.3.8c0 .5-.2.9-.5 1.1-.4.3-.9.4-1.5.4s-1-.1-1.5-.3v-.9c.2.1.4.2.7.2.2.1.5.1.7.1.4 0 .6-.1.8-.2s.3-.3.3-.6c0-.2-.1-.4-.3-.5s-.5-.1-.9-.1h-.4v-.8h.4c.4 0 .7-.1.9-.2s.3-.3.3-.5c0-.4-.2-.6-.7-.6-.2 0-.3 0-.5.1s-.4.2-.6.3l-.5-.7c.5-.3 1-.5 1.7-.5.5 0 .9.1 1.3.3 0 .2.2.5.2.9z"/><path d="m99.7 105.7h-.6v1.1h-1.1v-1.1h-2.2v-.7l2.2-3.3h1v3.2h.6v.8zm-1.7-.9v-.8c0-.1 0-.4 0-.6 0-.3 0-.4 0-.5-.1.2-.2.4-.3.6l-.9 1.4h1.2z"/><path d="m110.7 103.5c.5 0 .9.1 1.2.4s.4.7.4 1.1c0 .6-.2 1-.5 1.3-.4.3-.9.5-1.5.5s-1-.1-1.4-.3v-.9c.2.1.4.2.6.2.2.1.5.1.7.1.7 0 1-.3 1-.8s-.3-.8-1-.8c-.1 0-.3 0-.4 0s-.3.1-.4.1l-.4-.2.2-2.6h2.8v.9h-1.8l-.1 1h.1z"/><path d="m112.8 104.5c0-1 .2-1.8.6-2.3s1.1-.7 1.9-.7c.3 0 .5 0 .7.1v.9c-.2 0-.4-.1-.6-.1-.4 0-.7.1-.9.2s-.4.3-.5.5-.2.5-.2.9c.2-.4.6-.6 1.1-.6s.8.1 1.1.4.4.7.4 1.2-.2 1-.5 1.3-.7.5-1.3.5c-.4 0-.7-.1-1-.3s-.5-.4-.6-.8c-.1-.3-.2-.7-.2-1.2zm1.9 1.4c.2 0 .4-.1.5-.2.1-.2.2-.4.2-.7 0-.2-.1-.4-.2-.6-.1-.1-.3-.2-.5-.2s-.4.1-.6.2-.2.3-.2.5c0 .3.1.5.2.7.2.2.4.3.6.3z"/><path d="m117.5 106.7 1.9-4.2h-2.5v-.9h3.7v.7l-1.9 4.4z"/><path d="m122.8 101.5c.5 0 .9.1 1.2.3s.4.5.4.9c0 .3-.1.5-.2.7s-.4.4-.7.5c.4.2.7.4.8.6.2.2.2.5.2.7 0 .4-.2.8-.5 1-.3.3-.8.4-1.3.4-.6 0-1-.1-1.3-.4-.3-.2-.5-.6-.5-1 0-.3.1-.5.2-.8.2-.2.4-.4.7-.6-.3-.2-.5-.4-.6-.6s-.2-.4-.2-.7c0-.4.2-.7.5-.9.4.1.8-.1 1.3-.1zm-.8 3.9c0 .2.1.4.2.5s.3.2.6.2.5-.1.6-.2.2-.3.2-.5-.1-.3-.2-.4-.3-.3-.6-.4c-.6.1-.8.4-.8.8zm.8-3.1c-.2 0-.3 0-.4.1s-.2.2-.2.4c0 .1 0 .3.1.4s.3.2.5.3c.2-.1.4-.2.5-.3s.1-.2.1-.4-.1-.3-.2-.4c-.1 0-.2-.1-.4-.1z"/></g></svg>